<?xml version="1.0" encoding="utf-8"?>
<!-- Generator: Adobe Illustrator 27.5.0, SVG Export Plug-In . SVG Version: 6.00 Build 0)  -->
<svg version="1.1" xmlns="http://www.w3.org/2000/svg" xmlns:xlink="http://www.w3.org/1999/xlink" x="0px" y="0px"
	 viewBox="0 0 500 500" style="enable-background:new 0 0 500 500;" xml:space="preserve">
<g id="BACKGROUND">
	<rect style="fill:#FFFFFF;" width="500" height="500"/>
</g>
<g id="OBJECTS">
	<linearGradient id="SVGID_1_" gradientUnits="userSpaceOnUse" x1="239.3333" y1="436.3334" x2="239.3333" y2="401.6666">
		<stop  offset="0" style="stop-color:#FFFFFF"/>
		<stop  offset="0.3704" style="stop-color:#FDFEFE"/>
		<stop  offset="0.5674" style="stop-color:#F5F9FB"/>
		<stop  offset="0.7235" style="stop-color:#E7F1F6"/>
		<stop  offset="0.8583" style="stop-color:#D4E6EF"/>
		<stop  offset="0.978" style="stop-color:#BBD8E6"/>
		<stop  offset="1" style="stop-color:#B6D5E4"/>
	</linearGradient>
	<ellipse style="fill:url(#SVGID_1_);" cx="239.333" cy="413" rx="145.667" ry="10.667"/>
	
		<linearGradient id="SVGID_00000108271474578164438620000011003991897871748754_" gradientUnits="userSpaceOnUse" x1="245.5131" y1="337.507" x2="261.1387" y2="71.1602">
		<stop  offset="0" style="stop-color:#EDEDED"/>
		<stop  offset="0.9189" style="stop-color:#7ECAE6"/>
	</linearGradient>
	<path style="fill:url(#SVGID_00000108271474578164438620000011003991897871748754_);" d="M413.732,196.402
		c0.712-2.593,1.379-5.145,1.796-7.604c1.779-10.505,2.582-21.294,0.55-31.827c-3.289-17.05-16.022-33.575-33.284-35.453
		c-13.347-1.452-27.867,5.677-39.712-0.643c-9.217-4.918-12.842-16.003-18.982-24.456c-7.879-10.848-20.182-17.505-32.351-23.131
		c-19.259-8.904-42.915-15.848-60.725-4.317c-7.744,5.014-13.119,12.851-19.416,19.593c-6.297,6.742-14.559,12.806-23.774,12.356
		c-6.533-0.319-12.419-3.864-18.706-5.665c-12.252-3.51-26.291,0.175-35.239,9.251c-14.387,14.592-14.754,39.688-30.697,52.562
		c-8.357,6.748-19.66,8.881-28.228,15.359c-10.942,8.274-15.901,23.068-14.027,36.657c2.738,19.858,18.299,38.978,11.653,57.891
		c-2.088,5.943-6.197,10.934-9.125,16.511c-10.67,20.318,11.414,36.556,27.407,44.862c13.848,7.193,29.934,12.206,45.691,10.38
		c15.704-1.82,30.107-5.865,46.381-3.61c19.787,2.743,38.647,13.556,58.499,11.327c12.927-1.451,24.65-8.343,37.428-10.785
		c24.165-4.618,50.033,7.888,73.632,1.194c20.67-5.863,36.151-22.691,54.793-33.372c17.722-10.154,44.654-19.927,31.544-45.843
		c-3.818-7.547-10.082-13.503-15.753-19.777c-5.672-6.274-11.027-13.405-12.301-21.766
		C409.83,209.818,411.926,202.977,413.732,196.402z"/>
	<g>
		<path style="fill:#FFA898;" d="M280.827,73.758c3.335-3.127,5.896-6.497,9.998-7.801c2.303-0.732,9.786-1.675,8.277,3.157
			c-0.495,1.583-2.158,2.444-3.67,3.128c-8.805,3.984-16.027,13.131-22.872,19.998c-8.118,8.145-15.439,17.078-24.095,24.683
			c0.186-0.163-3.377-5.71-3.471-6.568c-0.327-2.983,0.854-4.076,2.643-6.429c3.791-4.987,8.691-9.469,13.245-13.749
			c9.457-8.887,19.045-15.453,27.123-25.77c0.339-0.432,0.802-0.913,1.338-0.796c1.214,0.266,0.118,2.236,0.623,3.372"/>
		<g>
			<path style="fill:#FFA898;" d="M231.814,115.5c-0.287,4.464-1.719,8.266-3.692,11.959c-1.311,2.425-2.855,4.806-4.475,7.274
				c-1.179,1.797-2.392,3.637-3.571,5.588c-1.345,2.193-3.813,5.577-7.142,7.352c-0.716,0.397-1.477,0.706-2.282,0.915
				c-1.322,0.342-2.744,0.298-4.243,0.529c-4.111,0.683-40.924-0.749-40.924-0.749c-1.94-1.135,5.588-8.873,14.869-3.042
				c4.21-0.981,18.374-4.199,20.611-4.563c2.281-0.386,4.684-0.893,6.712-1.499c0.54-0.154,1.047-0.32,1.532-0.496
				c0.948-3.736,2.039-7.44,3.34-11.033c0.221-0.606,0.452-1.212,0.683-1.818c1.003-2.623,2.116-5.214,3.373-7.726
				c1.543-3.064,3.692-5.522,6.789-6.812c1.742-0.706,3.593-1.168,5.125-1.003c0.033-0.011,0.033,0,0.033,0
				c1.312,0.166,2.392,0.816,2.921,2.182C231.759,113.295,231.913,114.276,231.814,115.5z"/>
			
				<linearGradient id="SVGID_00000134968259799812116750000012259972235526697858_" gradientUnits="userSpaceOnUse" x1="212.5473" y1="122.5367" x2="231.8438" y2="122.5367">
				<stop  offset="0" style="stop-color:#19507E"/>
				<stop  offset="0.1718" style="stop-color:#1F6282"/>
				<stop  offset="0.7283" style="stop-color:#2F968D"/>
				<stop  offset="1" style="stop-color:#36AB92"/>
			</linearGradient>
			<path style="fill:url(#SVGID_00000134968259799812116750000012259972235526697858_);" d="M231.814,115.5
				c-0.287,4.464-1.719,8.266-3.692,11.959c-1.311,2.425-2.855,4.806-4.475,7.274l-11.099-6.999
				c0.221-0.606,0.452-1.212,0.683-1.818c1.003-2.623,2.116-5.214,3.373-7.726c1.543-3.064,3.692-5.522,6.789-6.812
				c1.742-0.706,3.593-1.168,5.125-1.003c0.033-0.011,0.033,0,0.033,0c1.312,0.166,2.392,0.816,2.921,2.182
				C231.759,113.295,231.913,114.276,231.814,115.5z"/>
		</g>
		<path style="fill:#FFFFFF;" d="M236.07,172.691c-2.632,1.237-5.353,2.23-8.228,2.566c-3.247,0.379-6.53-0.105-9.748-0.684
			c-0.42-0.076-0.866-0.166-1.169-0.467c-0.389-0.386-0.425-0.993-0.434-1.542c-0.22-13.12,1.687-25.671,3.02-38.645
			c0.455-4.43,2.711-26.132,10.208-26.132l1.774-1.003l8.624,0.453l0.086,0.024c0.11,0.024,0.306,0.073,0.575,0.171
			c-1.261-0.458-2.363,18.066-2.385,18.928c-0.374,14.746,1.118,28.029,3.215,42.459c0.04,0.277,0.078,0.574-0.046,0.825
			c-0.127,0.257-0.393,0.408-0.645,0.544C239.325,171.051,237.715,171.919,236.07,172.691z"/>
		
			<linearGradient id="SVGID_00000083090577795074207340000012132504115125596560_" gradientUnits="userSpaceOnUse" x1="206.6659" y1="142.3094" x2="229.7065" y2="142.3094">
			<stop  offset="0" style="stop-color:#19507E"/>
			<stop  offset="0.1718" style="stop-color:#1F6282"/>
			<stop  offset="0.7283" style="stop-color:#2F968D"/>
			<stop  offset="1" style="stop-color:#36AB92"/>
		</linearGradient>
		<path style="fill:url(#SVGID_00000083090577795074207340000012132504115125596560_);" d="M219.337,176.731
			c-4.164-0.972-8.406-1.611-12.671-1.907c2.74-12.566,4.773-25.275,6.804-37.975c1.416-8.854,0.889-22.163,9.864-27.195
			c0.003-0.002,4.667-1.333,4.667-1.333l1.706-0.534c-7.498,6.048-9.577,20.162-9.855,29.062
			c-0.114,3.651-2.222,39.472-0.086,39.983C219.623,176.798,219.48,176.764,219.337,176.731z"/>
		<path style="fill:#FFA898;" d="M232.333,118.987c-8.77,0.652-1.037-18.748-1.037-18.748L243,94.321
			c0.134,0.452-2.884,12.916-2.884,12.916l0.086,0.024C240.666,107.371,236.623,118.668,232.333,118.987z"/>
		<path style="fill:#E29A9A;" d="M240.66,102.691c0.719-3.889,1.406-7.76,1.34-8.037l-11.703,7.425c0,0-1.073,3.379-1.966,7.575
			C232.969,109.126,237.456,106.817,240.66,102.691z"/>
		<g>
			<path style="fill:#FFA898;" d="M249.53,92.984c0.729-2.207,0.395-5.241-1.467-5.58c-0.556-0.102-1.213,0.046-1.873,0.357
				c-0.799-6.548-4.88-14.146-9.536-14.995c-6.091-1.11-14.243,2.553-14.578,18.552c-0.138,6.621,3.936,14.329,9.591,14.36
				c5.008,0.028,9.665-3.916,12.639-8.821C246.362,96.476,248.606,95.783,249.53,92.984z"/>
			
				<linearGradient id="SVGID_00000033344817616134837490000000044593434599847589_" gradientUnits="userSpaceOnUse" x1="219.9739" y1="81.1538" x2="249.7125" y2="81.1538">
				<stop  offset="0" style="stop-color:#55007E"/>
				<stop  offset="1" style="stop-color:#214A81"/>
			</linearGradient>
			<path style="fill:url(#SVGID_00000033344817616134837490000000044593434599847589_);" d="M223.318,92.236
				c0.403-1.976,1.316-3.845,2.625-5.379c1.59,1.577,3.644,2.83,5.882,2.91c2.238,0.08,4.608-1.28,5.175-3.446
				c1.353,2.322,3.576,4.124,6.127,4.968c0.509,0.168,1.118,0.284,1.543-0.044c0.403-0.312,0.46-0.883,0.611-1.37
				c0.497-1.606,2.492-2.558,4.053-1.934c1.043-4.817-0.052-10.217-3.463-13.775C234.417,62.223,211.368,78.905,223.318,92.236z"/>
		</g>
		
			<linearGradient id="SVGID_00000064332613403950643860000018274144387136448937_" gradientUnits="userSpaceOnUse" x1="233.7859" y1="135.4507" x2="267.0545" y2="135.4507">
			<stop  offset="0" style="stop-color:#19507E"/>
			<stop  offset="0.1718" style="stop-color:#1F6282"/>
			<stop  offset="0.7283" style="stop-color:#2F968D"/>
			<stop  offset="1" style="stop-color:#36AB92"/>
		</linearGradient>
		<path style="fill:url(#SVGID_00000064332613403950643860000018274144387136448937_);" d="M266.506,109.903
			c-3.084-5.719-6.448-11.286-10.076-16.676c-5.155,4.496-13.095,9.282-16.764,15.063c0,0-1.944,10.94-2.621,16.227
			c-1.435,11.169-3.415,22.952-3.249,34.245c0.081,5.537,0.493,11.177,2.545,16.32c0.363,0.909,0.836,1.864,1.709,2.307
			c0.728,0.369,1.592,0.307,2.404,0.22c6.474-0.69,11.484-3.435,17.503-4.939c-1.347,0.337-5.665-31.238-5.694-34.222
			c-0.049-5.079-0.277-11.306,2.414-15.612c2.769-4.431,8.495-8.441,12.379-11.908C266.873,110.585,266.69,110.244,266.506,109.903z
			"/>
	</g>
	<g>
		<g>
			<g>
				<g>
					<g>
						<g>
							
								<linearGradient id="SVGID_00000005252180648968198810000012082983194901003690_" gradientUnits="userSpaceOnUse" x1="-519.2642" y1="-549.5648" x2="-431.5581" y2="-639.2794" gradientTransform="matrix(0.9831 -0.1838 0.1838 0.9831 1002.8185 746.9143)">
								<stop  offset="0" style="stop-color:#19507E"/>
								<stop  offset="0.1718" style="stop-color:#1F6282"/>
								<stop  offset="0.7283" style="stop-color:#2F968D"/>
								<stop  offset="1" style="stop-color:#36AB92"/>
							</linearGradient>
							<path style="fill:url(#SVGID_00000005252180648968198810000012082983194901003690_);" d="M385.519,299.03
								c0,0,42.385-5.645,59.565-17.912c2.381-1.7,4.732-3.56,6.296-6.033c2.038-3.223,2.199-8.148-0.956-10.291
								c-3.109-2.112-7.36-0.41-11.046-1.145c4.567-1.939,9.15-4.081,12.811-7.428c3.661-3.347,6.323-8.112,6.051-13.066
								c-0.048-0.869-0.196-1.763-0.671-2.493c-1.283-1.968-4.266-1.848-6.393-0.85c-2.127,0.998-3.996,2.637-6.303,3.082
								c4.98-3.497,8.275-9.047,9.887-14.915c1.612-5.868,1.66-12.062,1.116-18.123c-0.488-5.433-1.353-11.305,1.394-16.017
								c-8.042,5.146-17.908,6.861-25.934,12.033c-8.486,5.469-14.38,14.79-15.683,24.801c-0.75-3.414-2.036-7.424-5.407-8.35
								c-3.236-0.889-6.382,1.711-8.302,4.463c-5.334,7.646-6.345,17.457-6.379,26.779c-1.222-3.146-3.193-6.84-6.568-6.86
								c-3.074-0.018-5.147,3.126-6.175,6.022C380.099,260.401,385.519,299.03,385.519,299.03z"/>
						</g>
					</g>
				</g>
			</g>
			<g style="opacity:0.6;">
				<path style="fill:#FFFFFF;" d="M385.599,299.209c2.607-0.844,5.157-1.88,7.64-3.073l0.942-0.264
					c4.344-1.219,8.642-2.537,12.921-3.938c4.281-1.388,8.532-2.87,12.752-4.44c4.208-1.599,8.402-3.242,12.512-5.086
					c1.038-0.435,2.048-0.937,3.068-1.413c1.02-0.476,2.036-0.96,3.036-1.48c1-0.517,2.017-0.998,3.001-1.545l2.94-1.655
					c-4.058,1.94-8.193,3.681-12.373,5.307c-4.175,1.637-8.399,3.148-12.635,4.62c-4.23,1.488-8.503,2.858-12.77,4.238
					c-2.37,0.747-4.746,1.486-7.124,2.213c4.074-2.53,7.903-5.49,11.401-8.78c0.163-0.152,0.323-0.309,0.485-0.463
					c1.786-0.706,3.566-1.422,5.332-2.175c2.812-1.185,5.611-2.4,8.384-3.673c2.781-1.255,5.531-2.58,8.261-3.94
					c2.721-1.381,5.431-2.782,8.087-4.282c-2.805,1.201-5.575,2.463-8.392,3.621c-2.802,1.191-5.612,2.36-8.425,3.518l-8.461,3.419
					c-0.692,0.27-1.384,0.544-2.076,0.817c2.412-2.519,4.661-5.189,6.73-7.982c1.383-1.875,2.645-3.83,3.813-5.834
					c0.59-0.495,1.195-0.976,1.809-1.445c2.687-2.026,5.471-3.967,8.266-5.868c2.808-1.89,5.655-3.717,8.543-5.499
					c2.866-1.817,5.78-3.594,8.466-5.681c-2.878,1.807-5.845,3.438-8.839,5.043c-2.983,1.624-5.94,3.322-8.82,5.137
					c-2.609,1.625-5.155,3.331-7.665,5.118c0.681-1.306,1.33-2.626,1.943-3.956c0.633-1.377,1.226-2.768,1.791-4.167
					c1.028-1.325,2.13-2.63,3.237-3.908c1.732-2.01,3.502-3.994,5.277-5.975l10.689-11.888c-2.032,1.734-3.969,3.57-5.923,5.39
					c-1.93,1.843-3.827,3.721-5.693,5.631c-1.863,1.912-3.698,3.854-5.483,5.848c-0.15,0.169-0.293,0.345-0.443,0.515
					c1.482-4.189,2.718-8.448,3.813-12.726l2.667-4.882c1.081-1.99,2.232-3.926,3.465-5.813c1.239-1.883,2.573-3.711,3.972-5.498
					c1.37-1.813,2.847-3.544,4.273-5.329c-1.693,1.534-3.291,3.163-4.875,4.818c-1.554,1.679-3.039,3.436-4.395,5.297
					c-1.367,1.849-2.58,3.807-3.74,5.777c0.097-0.421,0.195-0.841,0.29-1.262c1.09-4.755,2.167-9.496,3.951-13.985
					c0.034-0.087,0.074-0.172,0.109-0.259l0.204,0.019l0-0.504c1.75-4.192,4.237-8.135,7.809-11.034
					c0.079-0.065,0.097-0.182,0.036-0.266c-0.063-0.088-0.185-0.108-0.273-0.045c-2.007,1.435-3.776,3.21-5.271,5.19
					c-0.891,1.186-1.676,2.445-2.391,3.742c-0.005-0.058-0.007-0.117-0.013-0.175c-0.113-1.025-0.274-2.044-0.549-3.034
					c-0.274-0.989-0.625-1.955-1.093-2.86c-0.473-0.898-1.031-1.764-1.763-2.454c0.634,0.777,1.063,1.689,1.405,2.611
					c0.335,0.929,0.548,1.893,0.685,2.86c0.138,0.969,0.163,1.949,0.143,2.921c-0.01,0.486-0.063,0.973-0.092,1.456l-0.189,1.446
					l0.066,0.006c-2.041,4.478-3.399,9.205-4.709,13.873c-0.302,1.111-0.609,2.22-0.923,3.326c-0.089-0.543-0.183-1.085-0.284-1.626
					c-0.386-2.098-0.816-4.191-1.366-6.257c-0.533-2.069-1.176-4.112-1.935-6.109c-0.788-1.985-1.642-3.947-2.71-5.789
					c0.761,1.986,1.462,3.981,2.009,6.021c0.576,2.03,1.05,4.083,1.476,6.146c0.409,2.066,0.779,4.141,1.091,6.227
					c0.24,1.635,0.473,3.273,0.689,4.915c-1.558,5.176-3.317,10.27-5.459,15.172c-0.162-0.919-0.332-1.836-0.521-2.749
					c-0.463-2.306-0.984-4.601-1.582-6.874c-0.584-2.277-1.25-4.532-1.973-6.767c-0.749-2.227-1.505-4.449-2.393-6.622
					c0.576,2.275,1.185,4.534,1.703,6.816c0.543,2.274,1.043,4.556,1.525,6.839c0.467,2.287,0.911,4.576,1.31,6.873
					c0.278,1.66,0.545,3.321,0.795,4.985c-0.432,0.916-0.875,1.825-1.339,2.725c-1.593,3.121-3.422,6.094-5.447,8.911
					c-0.098-2.076-0.372-4.135-0.722-6.154c-0.685-3.644-1.507-7.234-2.476-10.798c-0.959-3.563-2.069-7.082-3.302-10.555
					c-1.272-3.459-2.612-6.891-4.156-10.231c1.204,3.477,2.392,6.95,3.407,10.477c1.05,3.514,1.997,7.055,2.844,10.616
					c0.831,3.562,1.612,7.151,2.205,10.745c0.447,2.637,0.736,5.299,0.684,7.932c-0.267,0.345-0.534,0.691-0.807,1.031
					c-2.785,3.494-5.684,6.876-8.743,10.108c0.045-2.258-0.059-4.514-0.245-6.753c-0.315-3.425-0.854-6.817-1.557-10.167
					c-0.701-3.352-1.563-6.662-2.543-9.934c-1.015-3.261-2.083-6.502-3.329-9.677c0.896,3.29,1.804,6.569,2.56,9.884
					c0.789,3.305,1.493,6.627,2.077,9.963c0.576,3.337,1.05,6.69,1.294,10.054c0.221,2.773,0.264,5.555,0.109,8.315
					c-3.05,3.092-6.311,5.968-9.75,8.656c-0.803,0.603-1.612,1.203-2.427,1.795c0.288-2.405,0.395-4.824,0.397-7.232
					c0.01-3.31-0.243-6.606-0.609-9.879c-0.386-3.272-0.896-6.525-1.553-9.745c-0.658-3.22-1.386-6.423-2.265-9.585
					c0.591,3.228,1.171,6.453,1.621,9.696c0.45,3.242,0.849,6.487,1.1,9.741c0.27,3.252,0.384,6.512,0.332,9.761
					c-0.053,2.84-0.285,5.671-0.727,8.456c-0.583,0.405-1.17,0.805-1.766,1.194c-2.023,1.335-4.105,2.599-6.214,3.853
					c-0.077,0.046-0.117,0.141-0.088,0.23C385.385,299.186,385.496,299.242,385.599,299.209z"/>
				<path style="fill:#FFFFFF;" d="M387.837,266.871c0.236,1.009,0.54,2.009,1.018,2.973c0.166-1.061,0.202-2.093,0.195-3.117
					c-0.008-1.024-0.05-2.04-0.136-3.049c-0.083-1.01-0.206-2.013-0.34-3.017c-0.132-1.007-0.3-2.002-0.49-3.055
					c-0.455,0.981-0.63,2.042-0.726,3.081c-0.094,1.044-0.09,2.087-0.003,3.119C387.434,264.838,387.602,265.861,387.837,266.871z"
					/>
				<path style="fill:#FFFFFF;" d="M387.158,267.547c-0.188-0.96-0.429-1.909-0.716-2.852c-0.287-0.943-0.621-1.879-1.099-2.796
					c-0.16,1.022-0.16,2.022-0.098,3.012c0.062,0.99,0.186,1.971,0.378,2.939c0.187,0.969,0.446,1.923,0.763,2.863
					c0.318,0.94,0.698,1.865,1.235,2.749c0.097-1.03,0.051-2.023-0.041-3.004C387.487,269.476,387.351,268.505,387.158,267.547z"/>
				<path style="fill:#FFFFFF;" d="M404.516,236.851c0.281,0.824,0.651,1.622,1.216,2.325c0.061-0.897,0.023-1.728-0.006-2.552
					c-0.038-0.821-0.086-1.627-0.143-2.433l-0.193-2.43c-0.085-0.82-0.159-1.649-0.341-2.529c-0.462,0.773-0.718,1.615-0.885,2.469
					c-0.157,0.856-0.202,1.73-0.143,2.597C404.08,235.164,404.244,236.024,404.516,236.851z"/>
				<path style="fill:#FFFFFF;" d="M402.964,237.595c-0.134-0.81-0.277-1.618-0.439-2.438c-0.171-0.82-0.336-1.647-0.618-2.511
					c-0.37,0.832-0.531,1.704-0.607,2.58c-0.066,0.876-0.023,1.758,0.119,2.623c0.141,0.865,0.383,1.715,0.727,2.523
					c0.352,0.805,0.785,1.58,1.404,2.249c-0.009-0.909-0.117-1.746-0.218-2.577C403.223,239.216,403.099,238.405,402.964,237.595z"
					/>
			</g>
		</g>
		<g>
			<g>
				
					<linearGradient id="SVGID_00000103238468394193791060000009416863627961014439_" gradientUnits="userSpaceOnUse" x1="680.6663" y1="1095.3763" x2="752.4791" y2="1095.3763" gradientTransform="matrix(-0.8996 0.4367 -0.4367 -0.8996 1548.6086 1023.146)">
					<stop  offset="0" style="stop-color:#CBC755"/>
					<stop  offset="1" style="stop-color:#629725"/>
				</linearGradient>
				<path style="fill:url(#SVGID_00000103238468394193791060000009416863627961014439_);" d="M426.755,317.271
					c11.883,1.946,22.186,9.715,29.626,19.182c7.441,9.467,12.396,20.605,17.224,31.636c-15.495,5.297-32.459,6.548-48.406,2.827
					c-15.947-3.721-30.789-12.512-41.142-25.199c-2.886-3.538-5.512-8.42-3.353-12.443c3.423-6.38,14.619-3.526,18.846-9.405"/>
				<polyline style="fill:#F5F5F5;" points="383.264,317.122 450.609,354.311 374.171,319.503 				"/>
				<polygon style="fill:#F5F5F5;" points="424.893,340.92 437.543,365.368 416.867,336.776 				"/>
				<polygon style="fill:#F5F5F5;" points="405.563,330.714 436.15,328.255 410.65,334.24 				"/>
				<polygon style="fill:#F5F5F5;" points="393.779,325.472 401.403,351.931 399.176,327.529 				"/>
			</g>
			<g>
				
					<linearGradient id="SVGID_00000011740781796214068220000011927228728175567280_" gradientUnits="userSpaceOnUse" x1="658.311" y1="1144.1107" x2="769.2575" y2="1144.1107" gradientTransform="matrix(-0.8996 0.4367 -0.4367 -0.8996 1548.6086 1023.146)">
					<stop  offset="0" style="stop-color:#FC9981"/>
					<stop  offset="0.9954" style="stop-color:#F8007E"/>
				</linearGradient>
				<path style="fill:url(#SVGID_00000011740781796214068220000011927228728175567280_);" d="M418.615,336.95
					c-23.159,5.878-77.923,4.974-64.879-33.798c3.051-9.07,10.527-16.211,19.152-20.357c18.289-8.791,41.822-8.639,60.085-0.333
					c13.289,6.044,24.833,15.273,36.181,24.457C455.424,321.261,437.857,332.066,418.615,336.95z"/>
				<polyline style="fill:#F5F5F5;" points="343.476,302.415 436.714,304.907 335.015,310.048 				"/>
				<polygon style="fill:#F5F5F5;" points="401.562,304.827 428.811,324.096 390.611,304.84 				"/>
				<polygon style="fill:#F5F5F5;" points="375.061,304.616 406.621,284.916 382.504,305.576 				"/>
				<polygon style="fill:#F5F5F5;" points="359.452,305.542 382.412,329.777 366.409,304.747 				"/>
			</g>
			<g>
				
					<linearGradient id="SVGID_00000096754288159177870640000008785728499604023439_" gradientUnits="userSpaceOnUse" x1="1090.0254" y1="371.1725" x2="1201.1322" y2="371.1725" gradientTransform="matrix(-0.9246 -0.3809 0.3809 -0.9246 1298.1738 1123.8947)">
					<stop  offset="0" style="stop-color:#214A81"/>
					<stop  offset="0.9963" style="stop-color:#55007E"/>
				</linearGradient>
				<path style="fill:url(#SVGID_00000096754288159177870640000008785728499604023439_);" d="M364.878,374.032
					c-19.858-13.286-55.812-54.605-18.264-70.838c8.784-3.797,19.093-3.016,27.943,0.624c18.767,7.717,34.393,25.315,40.432,44.448
					c4.394,13.922,5.254,28.677,6.014,43.255C401.16,390.905,381.379,385.072,364.878,374.032z"/>
				<polyline style="fill:#F5F5F5;" points="340.301,295.073 400.805,366.058 328.968,293.888 				"/>
				<polygon style="fill:#F5F5F5;" points="377.355,339.871 381.254,373.016 370.022,331.738 				"/>
				<polygon style="fill:#F5F5F5;" points="359.789,320.028 395.542,330.315 364.053,326.203 				"/>
				<polygon style="fill:#F5F5F5;" points="348.661,309.043 345.999,342.32 353.905,313.683 				"/>
			</g>
		</g>
	</g>
	<g>
		<g>
			<g>
				<g>
					<g>
						<g>
							
								<linearGradient id="SVGID_00000118354685827766396680000010517487585996803253_" gradientUnits="userSpaceOnUse" x1="-128.001" y1="-553.8684" x2="-40.2941" y2="-643.5838" gradientTransform="matrix(-0.9749 -0.2232 0.2232 -0.9749 126.8069 -391.8229)">
								<stop  offset="0" style="stop-color:#19507E"/>
								<stop  offset="0.1718" style="stop-color:#1F6282"/>
								<stop  offset="0.7283" style="stop-color:#2F968D"/>
								<stop  offset="1" style="stop-color:#36AB92"/>
							</linearGradient>
							<path style="fill:url(#SVGID_00000118354685827766396680000010517487585996803253_);" d="M132.078,181.821
								c0,0-41.123-11.715-61.768-7.312c-2.861,0.61-5.759,1.379-8.178,3.024c-3.154,2.144-5.264,6.597-3.224,9.82
								c2.01,3.176,6.587,3.309,9.675,5.453c-4.961-0.042-10.018,0.096-14.71,1.707c-4.692,1.611-9.033,4.92-10.757,9.572
								c-0.302,0.816-0.523,1.695-0.378,2.554c0.392,2.316,3.176,3.395,5.524,3.328c2.348-0.067,4.716-0.826,7.009-0.315
								c-5.961,1.223-11.195,4.999-15.013,9.738c-3.817,4.739-6.33,10.401-8.247,16.177c-1.718,5.177-3.264,10.907-7.662,14.135
								c9.427-1.514,19.159,0.845,28.581-0.7c9.963-1.634,19.083-7.833,24.268-16.496c-0.673,3.43-1.091,7.62,1.631,9.813
								c2.614,2.105,6.536,0.974,9.393-0.785c7.939-4.887,12.777-13.481,16.523-22.019c-0.133,3.372,0.202,7.546,3.29,8.909
								c2.812,1.241,5.966-0.815,8.064-3.062C121.654,219.411,132.078,181.821,132.078,181.821z"/>
						</g>
					</g>
				</g>
			</g>
			<g style="opacity:0.6;">
				<path style="fill:#FFFFFF;" d="M132.076,181.626c-2.728-0.265-5.479-0.331-8.232-0.227l-0.969-0.133
					c-4.47-0.613-8.937-1.117-13.42-1.538c-4.48-0.434-8.969-0.768-13.465-1.01c-4.497-0.211-8.998-0.376-13.503-0.323
					c-1.125-0.015-2.252,0.043-3.377,0.073c-1.125,0.03-2.25,0.069-3.374,0.147c-1.123,0.076-2.248,0.111-3.368,0.221l-3.356,0.346
					c4.495-0.162,8.981-0.111,13.463,0.064c4.482,0.163,8.958,0.46,13.429,0.799c4.473,0.321,8.937,0.767,13.401,1.203
					c2.472,0.259,4.945,0.528,7.415,0.81c-4.745,0.696-9.436,1.886-13.956,3.509c-0.211,0.075-0.419,0.155-0.629,0.231
					c-1.919-0.064-3.837-0.117-5.757-0.13c-3.051-0.034-6.102-0.035-9.153,0.028c-3.051,0.043-6.1,0.162-9.147,0.322
					c-3.046,0.183-6.09,0.387-9.124,0.704c3.051,0.016,6.095-0.036,9.14,0.023c3.044,0.024,6.087,0.072,9.129,0.131l9.123,0.236
					c0.743,0.028,1.486,0.053,2.23,0.078c-3.216,1.349-6.343,2.902-9.354,4.638c-2.016,1.169-3.952,2.459-5.822,3.831
					c-0.738,0.219-1.485,0.419-2.235,0.604c-3.272,0.788-6.599,1.458-9.92,2.087c-3.328,0.615-6.667,1.155-10.027,1.638
					c-3.353,0.524-6.734,0.992-10.029,1.837c3.36-0.51,6.73-0.824,10.116-1.102c3.383-0.301,6.772-0.68,10.137-1.196
					c3.04-0.45,6.055-1.001,9.07-1.639c-1.145,0.926-2.266,1.878-3.359,2.854c-1.13,1.011-2.228,2.05-3.304,3.108
					c-1.471,0.805-3.002,1.563-4.526,2.294c-2.389,1.154-4.804,2.267-7.222,3.377l-14.541,6.643c2.555-0.78,5.063-1.693,7.58-2.583
					c2.505-0.921,4.993-1.887,7.465-2.896c2.471-1.011,4.927-2.061,7.36-3.178c0.205-0.096,0.407-0.2,0.611-0.296
					c-3.029,3.251-5.86,6.664-8.569,10.152l-4.392,3.415c-1.785,1.394-3.612,2.711-5.494,3.951
					c-1.886,1.233-3.839,2.378-5.834,3.459c-1.979,1.117-4.023,2.116-6.043,3.185c2.164-0.732,4.279-1.59,6.391-2.476
					c2.095-0.921,4.156-1.94,6.142-3.106c1.99-1.151,3.884-2.463,5.733-3.807c-0.257,0.347-0.514,0.694-0.769,1.042
					c-2.895,3.927-5.773,7.846-9.197,11.252c-0.066,0.066-0.136,0.128-0.203,0.194l-0.179-0.099l-0.201,0.462
					c-3.276,3.147-7.128,5.772-11.559,7.008c-0.099,0.028-0.161,0.128-0.139,0.23c0.023,0.106,0.127,0.173,0.232,0.15
					c2.412-0.516,4.743-1.439,6.902-2.659c1.289-0.732,2.511-1.574,3.684-2.479c-0.018,0.056-0.04,0.11-0.057,0.166
					c-0.305,0.985-0.563,1.984-0.706,3.002c-0.143,1.016-0.206,2.042-0.138,3.059c0.076,1.012,0.243,2.028,0.639,2.953
					c-0.272-0.966-0.302-1.972-0.248-2.954c0.063-0.985,0.251-1.954,0.512-2.896c0.26-0.944,0.628-1.852,1.033-2.736
					c0.203-0.442,0.446-0.867,0.665-1.299l0.75-1.251l-0.058-0.032c3.657-3.293,6.786-7.087,9.848-10.847
					c0.719-0.898,1.443-1.793,2.173-2.683c-0.135,0.533-0.264,1.068-0.388,1.605c-0.482,2.078-0.922,4.169-1.241,6.283
					c-0.336,2.11-0.56,4.24-0.66,6.375c-0.068,2.135-0.067,4.274,0.178,6.389c0.094-2.125,0.245-4.234,0.557-6.323
					c0.28-2.091,0.664-4.164,1.096-6.225c0.448-2.058,0.936-4.108,1.481-6.146c0.431-1.595,0.87-3.19,1.327-4.782
					c3.492-4.126,7.135-8.097,11.054-11.739c-0.218,0.907-0.427,1.816-0.618,2.729c-0.495,2.3-0.931,4.612-1.289,6.935
					c-0.372,2.321-0.66,4.655-0.887,6.993c-0.201,2.341-0.393,4.68-0.444,7.027c0.379-2.316,0.72-4.631,1.155-6.93
					c0.408-2.302,0.859-4.594,1.327-6.88c0.483-2.283,0.988-4.56,1.537-6.826c0.407-1.633,0.824-3.263,1.257-4.889
					c0.761-0.668,1.53-1.325,2.313-1.965c2.705-2.228,5.567-4.225,8.547-6.002c-0.737,1.943-1.307,3.941-1.79,5.932
					c-0.824,3.615-1.501,7.236-2.032,10.89c-0.54,3.65-0.925,7.32-1.178,10.997c-0.212,3.679-0.351,7.361-0.266,11.04
					c0.282-3.668,0.576-7.328,1.051-10.966c0.437-3.641,0.98-7.266,1.623-10.87c0.657-3.598,1.372-7.2,2.26-10.733
					c0.641-2.597,1.437-5.153,2.534-7.547c0.382-0.21,0.765-0.421,1.151-0.624c3.947-2.094,7.953-4.042,12.047-5.786
					c-0.941,2.053-1.745,4.163-2.467,6.291c-1.076,3.267-1.934,6.592-2.624,9.946c-0.693,3.353-1.222,6.733-1.626,10.124
					c-0.369,3.395-0.681,6.794-0.804,10.202c0.49-3.374,0.964-6.744,1.591-10.085c0.593-3.346,1.272-6.673,2.066-9.966
					c0.801-3.29,1.703-6.554,2.821-9.737c0.903-2.632,1.972-5.2,3.214-7.669c4.029-1.621,8.167-2.958,12.392-4.053
					c0.977-0.234,1.958-0.461,2.941-0.679c-1.223,2.091-2.284,4.267-3.246,6.474c-1.328,3.032-2.41,6.156-3.379,9.303
					c-0.95,3.155-1.779,6.341-2.459,9.557c-0.68,3.216-1.288,6.443-1.743,9.694c0.745-3.196,1.498-6.385,2.378-9.538
					c0.88-3.152,1.807-6.288,2.874-9.372c1.049-3.09,2.244-6.126,3.586-9.084c1.18-2.584,2.521-5.087,4.037-7.466
					c0.696-0.139,1.394-0.272,2.096-0.391c2.388-0.418,4.8-0.748,7.235-1.057c0.089-0.011,0.163-0.083,0.172-0.176
					C132.263,181.733,132.184,181.636,132.076,181.626z"/>
				<path style="fill:#FFFFFF;" d="M117.136,210.393c0.185-1.02,0.306-2.058,0.251-3.132c-0.575,0.907-1.02,1.839-1.421,2.781
					c-0.4,0.943-0.767,1.891-1.09,2.85c-0.327,0.959-0.613,1.928-0.891,2.902c-0.28,0.977-0.522,1.956-0.768,2.997
					c0.808-0.718,1.391-1.621,1.894-2.536c0.503-0.92,0.915-1.878,1.246-2.859C116.695,212.418,116.949,211.413,117.136,210.393z"/>
				<path style="fill:#FFFFFF;" d="M118.027,210.044c-0.21,0.955-0.367,1.922-0.48,2.901c-0.112,0.979-0.18,1.971-0.106,3.002
					c0.554-0.873,0.952-1.791,1.29-2.723c0.337-0.933,0.615-1.882,0.825-2.846c0.215-0.963,0.357-1.941,0.441-2.93
					c0.083-0.988,0.104-1.988-0.037-3.014c-0.5,0.906-0.854,1.835-1.16,2.772C118.495,208.143,118.232,209.087,118.027,210.044z"/>
				<path style="fill:#FFFFFF;" d="M89.874,231.278c0.07-0.868,0.05-1.747-0.188-2.617c-0.414,0.798-0.71,1.576-1.012,2.343
					c-0.293,0.768-0.569,1.527-0.839,2.289l-0.792,2.306c-0.249,0.786-0.511,1.576-0.696,2.455c0.732-0.525,1.302-1.195,1.795-1.912
					c0.485-0.722,0.875-1.507,1.167-2.325C89.602,232.999,89.794,232.145,89.874,231.278z"/>
				<path style="fill:#FFFFFF;" d="M91.594,231.214c-0.2,0.796-0.39,1.595-0.569,2.41c-0.17,0.82-0.348,1.645-0.434,2.549
					c0.671-0.616,1.166-1.352,1.585-2.124c0.41-0.777,0.721-1.603,0.936-2.453c0.215-0.85,0.332-1.725,0.339-2.604
					c-0.002-0.879-0.09-1.762-0.392-2.622c-0.354,0.837-0.589,1.648-0.827,2.451C92.003,229.624,91.793,230.418,91.594,231.214z"/>
			</g>
		</g>
		<g>
			<g>
				
					<linearGradient id="SVGID_00000067224739740984269850000002444355183676624784_" gradientUnits="userSpaceOnUse" x1="476.3494" y1="1412.6035" x2="542.869" y2="1412.6035" gradientTransform="matrix(-0.0722 0.9974 0.9974 0.0722 -1294.6638 -479.8681)">
					<stop  offset="0" style="stop-color:#CBC755"/>
					<stop  offset="1" style="stop-color:#629725"/>
				</linearGradient>
				<path style="fill:url(#SVGID_00000067224739740984269850000002444355183676624784_);" d="M105.825,117.968
					c-5.754-9.555-15.976-15.752-26.676-18.903c-10.7-3.151-21.984-3.59-33.132-3.956c0.763,15.15,5.512,30.175,14.189,42.617
					c8.677,12.442,21.336,22.194,35.806,26.744c4.035,1.269,9.137,1.851,11.857-1.388c4.314-5.136-1.986-13.788,1.621-19.443"/>
				<polyline style="fill:#F5F5F5;" points="120.886,155.335 65.766,110.164 121.959,163.976 				"/>
				<polygon style="fill:#F5F5F5;" points="86.117,127.691 60.74,125.202 92.438,133.173 				"/>
				<polygon style="fill:#F5F5F5;" points="101.535,140.817 93.148,113.657 96.755,137.651 				"/>
				<polygon style="fill:#F5F5F5;" points="110.091,149.155 84.71,151.681 106.468,145.218 				"/>
			</g>
			<g>
				
					<linearGradient id="SVGID_00000083769274025103187020000010678173201214953661_" gradientUnits="userSpaceOnUse" x1="455.6389" y1="1457.7478" x2="558.4099" y2="1457.7478" gradientTransform="matrix(-0.0722 0.9974 0.9974 0.0722 -1294.6638 -479.8681)">
					<stop  offset="0.2012" style="stop-color:#FFD584"/>
					<stop  offset="0.9175" style="stop-color:#FCEE21"/>
				</linearGradient>
				<path style="fill:url(#SVGID_00000083769274025103187020000010678173201214953661_);" d="M91.688,131.729
					c2.894,21.943,22.476,68.749,51.355,44.215c6.756-5.74,10.333-14.623,10.938-23.467c1.284-18.754-6.927-38.948-20.345-51.809
					c-9.763-9.358-21.667-16.121-33.465-22.731C92.548,94.673,89.283,113.497,91.688,131.729z"/>
				<polyline style="fill:#F5F5F5;" points="147.201,184.517 113.042,105.155 143.539,194.418 				"/>
				<polygon style="fill:#F5F5F5;" points="125.181,135.371 99.247,118.543 128.93,144.797 				"/>
				<polygon style="fill:#F5F5F5;" points="134.461,158.099 140.574,124.182 131.08,152.024 				"/>
				<polygon style="fill:#F5F5F5;" points="139.024,171.846 110.29,160.414 137.319,165.587 				"/>
			</g>
			<g>
				
					<linearGradient id="SVGID_00000058585269687749344880000000244839893830764442_" gradientUnits="userSpaceOnUse" x1="1189.5314" y1="736.697" x2="1292.4489" y2="736.697" gradientTransform="matrix(0.6965 0.7176 0.7176 -0.6965 -1294.5499 -210.232)">
					<stop  offset="0" style="stop-color:#214A81"/>
					<stop  offset="0.9963" style="stop-color:#55007E"/>
				</linearGradient>
				<path style="fill:url(#SVGID_00000058585269687749344880000000244839893830764442_);" d="M78.236,190.694
					c18.249,12.523,66.144,29.269,67.217-8.61c0.251-8.861-3.961-17.462-10.131-23.827c-13.084-13.497-33.589-20.898-52.124-19.524
					c-13.486,1-26.476,5.326-39.28,9.678C51.261,165.272,63.072,180.288,78.236,190.694z"/>
				<polyline style="fill:#F5F5F5;" points="154.607,184.728 72.76,157.046 159.518,194.072 				"/>
				<polygon style="fill:#F5F5F5;" points="103.342,168.23 73.487,176.256 112.858,171.747 				"/>
				<polygon style="fill:#F5F5F5;" points="126.446,176.53 105.319,149.302 119.669,174.981 				"/>
				<polygon style="fill:#F5F5F5;" points="139.718,182.332 112.002,196.049 133.925,179.414 				"/>
			</g>
		</g>
	</g>
	<g>
		<g>
			<path style="fill:#1D262D;" d="M93.328,339.952V157.775c0-5.13,4.197-9.327,9.327-9.327h291.56c5.13,0,9.327,4.197,9.327,9.327
				v182.177c0,5.13-4.197,9.327-9.327,9.327h-291.56C97.525,349.279,93.328,345.082,93.328,339.952z"/>
			
				<linearGradient id="SVGID_00000098922856960313942960000000314467291922388661_" gradientUnits="userSpaceOnUse" x1="251.177" y1="164.7754" x2="245.1769" y2="348.7755">
				<stop  offset="0" style="stop-color:#FFFFFF"/>
				<stop  offset="0.3704" style="stop-color:#FDFEFE"/>
				<stop  offset="0.5674" style="stop-color:#F5F9FB"/>
				<stop  offset="0.7235" style="stop-color:#E7F1F6"/>
				<stop  offset="0.8583" style="stop-color:#D4E6EF"/>
				<stop  offset="0.978" style="stop-color:#BBD8E6"/>
				<stop  offset="1" style="stop-color:#B6D5E4"/>
			</linearGradient>
			<path style="fill:url(#SVGID_00000098922856960313942960000000314467291922388661_);" d="M116.827,333.011V164.716
				c0-3.387,2.771-6.157,6.157-6.157h250.9c3.387,0,6.157,2.771,6.157,6.157v168.294c0,3.387-2.771,6.157-6.157,6.157h-250.9
				C119.598,339.168,116.827,336.397,116.827,333.011z"/>
			<path style="fill:#FFFFFF;" d="M398.491,248.864c0,3.982-3.228,7.21-7.211,7.21c-3.982,0-7.21-3.228-7.21-7.21
				c0-3.982,3.228-7.211,7.21-7.211C395.263,241.653,398.491,244.881,398.491,248.864z"/>
			<path style="fill:#FFFFFF;" d="M104.309,269.844h-1.059c-0.744,0-1.353-0.609-1.353-1.353v-39.254
				c0-0.744,0.609-1.353,1.353-1.353h1.059c0.744,0,1.353,0.609,1.353,1.353v39.254
				C105.662,269.235,105.053,269.844,104.309,269.844z"/>
		</g>
		<g>
			
				<linearGradient id="SVGID_00000155824970331762347460000011389477420592484770_" gradientUnits="userSpaceOnUse" x1="140.709" y1="233.2859" x2="166.209" y2="208.7859">
				<stop  offset="0" style="stop-color:#FFFFFF"/>
				<stop  offset="0.3704" style="stop-color:#FDFEFE"/>
				<stop  offset="0.5674" style="stop-color:#F5F9FB"/>
				<stop  offset="0.7235" style="stop-color:#E7F1F6"/>
				<stop  offset="0.8583" style="stop-color:#D4E6EF"/>
				<stop  offset="0.978" style="stop-color:#BBD8E6"/>
				<stop  offset="1" style="stop-color:#B6D5E4"/>
			</linearGradient>
			
				<rect x="143.386" y="205.275" style="fill:url(#SVGID_00000155824970331762347460000011389477420592484770_);" width="25.947" height="25.947"/>
			
				<linearGradient id="SVGID_00000161602847725594953660000012664882106173680012_" gradientUnits="userSpaceOnUse" x1="168.3791" y1="187.9494" x2="150.8791" y2="221.9494">
				<stop  offset="0" style="stop-color:#FFFFFF"/>
				<stop  offset="0.3704" style="stop-color:#FDFEFE"/>
				<stop  offset="0.5674" style="stop-color:#F5F9FB"/>
				<stop  offset="0.7235" style="stop-color:#E7F1F6"/>
				<stop  offset="0.8583" style="stop-color:#D4E6EF"/>
				<stop  offset="0.978" style="stop-color:#BBD8E6"/>
				<stop  offset="1" style="stop-color:#B6D5E4"/>
			</linearGradient>
			<polygon style="fill:url(#SVGID_00000161602847725594953660000012664882106173680012_);" points="169.334,205.275 
				143.386,205.275 153.219,198.223 179.166,198.223 			"/>
			
				<linearGradient id="SVGID_00000167362651222531040350000009652588513376561332_" gradientUnits="userSpaceOnUse" x1="174.1458" y1="198.6511" x2="174.6458" y2="223.1511">
				<stop  offset="0" style="stop-color:#FFFFFF"/>
				<stop  offset="0.3704" style="stop-color:#FDFEFE"/>
				<stop  offset="0.5674" style="stop-color:#F5F9FB"/>
				<stop  offset="0.7235" style="stop-color:#E7F1F6"/>
				<stop  offset="0.8583" style="stop-color:#D4E6EF"/>
				<stop  offset="0.978" style="stop-color:#BBD8E6"/>
				<stop  offset="1" style="stop-color:#B6D5E4"/>
			</linearGradient>
			<polygon style="fill:url(#SVGID_00000167362651222531040350000009652588513376561332_);" points="169.334,205.275 
				169.334,231.222 179.614,223.829 179.614,198.223 			"/>
		</g>
		<g>
			
				<linearGradient id="SVGID_00000104702364018732656200000006087342540485651389_" gradientUnits="userSpaceOnUse" x1="216.0531" y1="218.2486" x2="242.0004" y2="218.2486">
				<stop  offset="0.2012" style="stop-color:#FFD584"/>
				<stop  offset="0.9175" style="stop-color:#FCEE21"/>
			</linearGradient>
			
				<rect x="216.053" y="205.275" style="fill:url(#SVGID_00000104702364018732656200000006087342540485651389_);" width="25.947" height="25.947"/>
			
				<linearGradient id="SVGID_00000131351191717059353560000006952369234856143774_" gradientUnits="userSpaceOnUse" x1="230.4908" y1="225.9146" x2="236.4908" y2="183.9147">
				<stop  offset="0.2012" style="stop-color:#FFD584"/>
				<stop  offset="0.9175" style="stop-color:#FCEE21"/>
			</linearGradient>
			<polygon style="fill:url(#SVGID_00000131351191717059353560000006952369234856143774_);" points="242,205.275 216.053,205.275 
				225.886,198.223 251.833,198.223 			"/>
			
				<linearGradient id="SVGID_00000102536030655375394600000016078025676443396745_" gradientUnits="userSpaceOnUse" x1="234.2946" y1="237.7572" x2="254.9613" y2="200.4239">
				<stop  offset="0.2012" style="stop-color:#FFD584"/>
				<stop  offset="0.9175" style="stop-color:#FCEE21"/>
			</linearGradient>
			<polygon style="fill:url(#SVGID_00000102536030655375394600000016078025676443396745_);" points="242,205.275 242,231.222 
				252.28,223.829 252.28,198.223 			"/>
		</g>
		<g>
			
				<linearGradient id="SVGID_00000044150648539678142900000011113823800137509260_" gradientUnits="userSpaceOnUse" x1="286.3603" y1="218.2486" x2="312.3076" y2="218.2486">
				<stop  offset="0" style="stop-color:#CBC755"/>
				<stop  offset="1" style="stop-color:#629725"/>
			</linearGradient>
			
				<rect x="286.36" y="205.275" style="fill:url(#SVGID_00000044150648539678142900000011113823800137509260_);" width="25.947" height="25.947"/>
			
				<linearGradient id="SVGID_00000115511979955815946830000000994427907743635615_" gradientUnits="userSpaceOnUse" x1="300.7981" y1="225.9147" x2="306.7981" y2="183.9147">
				<stop  offset="0" style="stop-color:#CBC755"/>
				<stop  offset="1" style="stop-color:#629725"/>
			</linearGradient>
			<polygon style="fill:url(#SVGID_00000115511979955815946830000000994427907743635615_);" points="312.308,205.275 
				286.36,205.275 296.193,198.223 322.14,198.223 			"/>
			
				<linearGradient id="SVGID_00000005985599277176358070000010754921266646603146_" gradientUnits="userSpaceOnUse" x1="304.6018" y1="237.7572" x2="325.2685" y2="200.4239">
				<stop  offset="0" style="stop-color:#CBC755"/>
				<stop  offset="1" style="stop-color:#629725"/>
			</linearGradient>
			<polygon style="fill:url(#SVGID_00000005985599277176358070000010754921266646603146_);" points="312.308,205.275 
				312.308,231.222 322.588,223.829 322.588,198.223 			"/>
		</g>
		<g>
			
				<linearGradient id="SVGID_00000110448756948412891640000012177576823762197134_" gradientUnits="userSpaceOnUse" x1="184.6673" y1="205.6541" x2="210.0006" y2="205.6541">
				<stop  offset="0" style="stop-color:#214A81"/>
				<stop  offset="0.9963" style="stop-color:#55007E"/>
			</linearGradient>
			<path style="fill:url(#SVGID_00000110448756948412891640000012177576823762197134_);" d="M208.667,206.987h-22.667
				c-0.733,0-1.333-0.6-1.333-1.333l0,0c0-0.733,0.6-1.333,1.333-1.333h22.667c0.733,0,1.333,0.6,1.333,1.333l0,0
				C210.001,206.387,209.401,206.987,208.667,206.987z"/>
			
				<linearGradient id="SVGID_00000104682018573776054910000017094129817317399206_" gradientUnits="userSpaceOnUse" x1="184.6673" y1="211.6541" x2="210.0006" y2="211.6541">
				<stop  offset="0" style="stop-color:#214A81"/>
				<stop  offset="0.9963" style="stop-color:#55007E"/>
			</linearGradient>
			<path style="fill:url(#SVGID_00000104682018573776054910000017094129817317399206_);" d="M208.667,212.987h-22.667
				c-0.733,0-1.333-0.6-1.333-1.333l0,0c0-0.733,0.6-1.333,1.333-1.333h22.667c0.733,0,1.333,0.6,1.333,1.333l0,0
				C210.001,212.387,209.401,212.987,208.667,212.987z"/>
			
				<linearGradient id="SVGID_00000076587142596390768020000001728122448473789340_" gradientUnits="userSpaceOnUse" x1="187.6667" y1="219.9874" x2="206.3333" y2="219.9874">
				<stop  offset="0" style="stop-color:#19507E"/>
				<stop  offset="0.1718" style="stop-color:#1F6282"/>
				<stop  offset="0.7283" style="stop-color:#2F968D"/>
				<stop  offset="1" style="stop-color:#36AB92"/>
			</linearGradient>
			<path style="fill:url(#SVGID_00000076587142596390768020000001728122448473789340_);" d="M202.667,223.654h-11.333
				c-2.017,0-3.667-1.65-3.667-3.667l0,0c0-2.017,1.65-3.667,3.667-3.667h11.333c2.017,0,3.667,1.65,3.667,3.667l0,0
				C206.333,222.004,204.683,223.654,202.667,223.654z"/>
		</g>
		<g>
			
				<linearGradient id="SVGID_00000054973099007361482280000001713792989943252390_" gradientUnits="userSpaceOnUse" x1="251.8346" y1="260.471" x2="345" y2="260.471">
				<stop  offset="0" style="stop-color:#214A81"/>
				<stop  offset="0.9963" style="stop-color:#55007E"/>
			</linearGradient>
			<path style="fill:url(#SVGID_00000054973099007361482280000001713792989943252390_);" d="M341.85,263.621h-86.865
				c-1.733,0-3.15-1.418-3.15-3.15l0,0c0-1.733,1.418-3.15,3.15-3.15h86.865c1.733,0,3.15,1.418,3.15,3.15l0,0
				C345,262.204,343.582,263.621,341.85,263.621z"/>
			
				<linearGradient id="SVGID_00000011013683125452456530000017897804382411203750_" gradientUnits="userSpaceOnUse" x1="251.8346" y1="274.6473" x2="345" y2="274.6473">
				<stop  offset="0" style="stop-color:#214A81"/>
				<stop  offset="0.9963" style="stop-color:#55007E"/>
			</linearGradient>
			<path style="fill:url(#SVGID_00000011013683125452456530000017897804382411203750_);" d="M341.85,277.798h-86.865
				c-1.733,0-3.15-1.418-3.15-3.15v0c0-1.733,1.418-3.15,3.15-3.15h86.865c1.733,0,3.15,1.418,3.15,3.15v0
				C345,276.38,343.582,277.798,341.85,277.798z"/>
			
				<linearGradient id="SVGID_00000023279156397263423060000013740321948945309095_" gradientUnits="userSpaceOnUse" x1="262.865" y1="294.3367" x2="331.5132" y2="294.3367">
				<stop  offset="0" style="stop-color:#19507E"/>
				<stop  offset="0.1718" style="stop-color:#1F6282"/>
				<stop  offset="0.7283" style="stop-color:#2F968D"/>
				<stop  offset="1" style="stop-color:#36AB92"/>
			</linearGradient>
			<path style="fill:url(#SVGID_00000023279156397263423060000013740321948945309095_);" d="M322.85,303h-51.322
				c-4.765,0-8.663-3.898-8.663-8.663l0,0c0-4.765,3.898-8.663,8.663-8.663h51.322c4.765,0,8.663,3.898,8.663,8.663l0,0
				C331.513,299.102,327.615,303,322.85,303z"/>
		</g>
		<g>
			
				<linearGradient id="SVGID_00000101102866061529885610000016998671029797463975_" gradientUnits="userSpaceOnUse" x1="257.0006" y1="205.6541" x2="282.334" y2="205.6541">
				<stop  offset="0" style="stop-color:#214A81"/>
				<stop  offset="0.9963" style="stop-color:#55007E"/>
			</linearGradient>
			<path style="fill:url(#SVGID_00000101102866061529885610000016998671029797463975_);" d="M281.001,206.987h-22.667
				c-0.733,0-1.333-0.6-1.333-1.333l0,0c0-0.733,0.6-1.333,1.333-1.333h22.667c0.733,0,1.333,0.6,1.333,1.333l0,0
				C282.334,206.387,281.734,206.987,281.001,206.987z"/>
			
				<linearGradient id="SVGID_00000066491816290129023650000000487471413609273502_" gradientUnits="userSpaceOnUse" x1="257.0006" y1="211.6541" x2="282.334" y2="211.6541">
				<stop  offset="0" style="stop-color:#214A81"/>
				<stop  offset="0.9963" style="stop-color:#55007E"/>
			</linearGradient>
			<path style="fill:url(#SVGID_00000066491816290129023650000000487471413609273502_);" d="M281.001,212.987h-22.667
				c-0.733,0-1.333-0.6-1.333-1.333l0,0c0-0.733,0.6-1.333,1.333-1.333h22.667c0.733,0,1.333,0.6,1.333,1.333l0,0
				C282.334,212.387,281.734,212.987,281.001,212.987z"/>
			
				<linearGradient id="SVGID_00000031181867057683872770000006189708481641546643_" gradientUnits="userSpaceOnUse" x1="260" y1="219.9874" x2="278.6667" y2="219.9874">
				<stop  offset="0" style="stop-color:#19507E"/>
				<stop  offset="0.1718" style="stop-color:#1F6282"/>
				<stop  offset="0.7283" style="stop-color:#2F968D"/>
				<stop  offset="1" style="stop-color:#36AB92"/>
			</linearGradient>
			<path style="fill:url(#SVGID_00000031181867057683872770000006189708481641546643_);" d="M275,223.654h-11.333
				c-2.017,0-3.667-1.65-3.667-3.667l0,0c0-2.017,1.65-3.667,3.667-3.667H275c2.017,0,3.667,1.65,3.667,3.667l0,0
				C278.667,222.004,277.017,223.654,275,223.654z"/>
		</g>
		<g>
			
				<linearGradient id="SVGID_00000012440154167749835050000012748093006974803634_" gradientUnits="userSpaceOnUse" x1="329.6673" y1="205.6541" x2="355.0006" y2="205.6541">
				<stop  offset="0" style="stop-color:#214A81"/>
				<stop  offset="0.9963" style="stop-color:#55007E"/>
			</linearGradient>
			<path style="fill:url(#SVGID_00000012440154167749835050000012748093006974803634_);" d="M353.667,206.987h-22.667
				c-0.733,0-1.333-0.6-1.333-1.333l0,0c0-0.733,0.6-1.333,1.333-1.333h22.667c0.733,0,1.333,0.6,1.333,1.333l0,0
				C355.001,206.387,354.401,206.987,353.667,206.987z"/>
			
				<linearGradient id="SVGID_00000047757256562218542540000016655586728295500730_" gradientUnits="userSpaceOnUse" x1="329.6673" y1="211.6541" x2="355.0006" y2="211.6541">
				<stop  offset="0" style="stop-color:#214A81"/>
				<stop  offset="0.9963" style="stop-color:#55007E"/>
			</linearGradient>
			<path style="fill:url(#SVGID_00000047757256562218542540000016655586728295500730_);" d="M353.667,212.987h-22.667
				c-0.733,0-1.333-0.6-1.333-1.333l0,0c0-0.733,0.6-1.333,1.333-1.333h22.667c0.733,0,1.333,0.6,1.333,1.333l0,0
				C355.001,212.387,354.401,212.987,353.667,212.987z"/>
			
				<linearGradient id="SVGID_00000080916218920116864940000001020519936010115469_" gradientUnits="userSpaceOnUse" x1="332.6667" y1="219.9874" x2="351.3333" y2="219.9874">
				<stop  offset="0" style="stop-color:#19507E"/>
				<stop  offset="0.1718" style="stop-color:#1F6282"/>
				<stop  offset="0.7283" style="stop-color:#2F968D"/>
				<stop  offset="1" style="stop-color:#36AB92"/>
			</linearGradient>
			<path style="fill:url(#SVGID_00000080916218920116864940000001020519936010115469_);" d="M347.667,223.654h-11.333
				c-2.017,0-3.667-1.65-3.667-3.667l0,0c0-2.017,1.65-3.667,3.667-3.667h11.333c2.017,0,3.667,1.65,3.667,3.667l0,0
				C351.333,222.004,349.683,223.654,347.667,223.654z"/>
		</g>
	</g>
	<g>
		<g>
			<path style="fill:#FFA898;" d="M167.646,314.716c0.057-1.984-0.231-3.699,0.012-5.322c-6.468-5.18-12.62-10.776-18.598-16.575
				c-2.978,11.844-0.147,25.166-1.437,37.976c-0.836,8.301-3.864,14.951-7.689,21.596c-6.823,9.522-13.322,20.75-17.475,28.301
				c-2.588,4.071-2.545,4.233-5.172,8.282c-0.009,0.008-0.018,0.015-0.026,0.023c-2.697,2.452-4.894,4.967-2.063,7.029l0.447,0.316
				c1.345,0.969,2.177,2.491,2.306,4.17c0.299,3.798,5.628,7.557,9.049,8.987c0.178,0.075,0.366,0.137,0.566,0.209
				c1.517,0.531,3.023-0.958,2.556-2.499l-1.215-4.661L126,391.321c4.969-5.636,13.69-15.048,22.37-25.308
				c6.047-7.147,12.412-14.073,16.178-22.976C168.053,334.75,167.393,323.591,167.646,314.716z"/>
			
				<linearGradient id="SVGID_00000147905643785876087690000014666514344372341912_" gradientUnits="userSpaceOnUse" x1="113.8763" y1="399.4074" x2="130.2095" y2="399.4074">
				<stop  offset="0" style="stop-color:#55007E"/>
				<stop  offset="1" style="stop-color:#214A81"/>
			</linearGradient>
			<path style="fill:url(#SVGID_00000147905643785876087690000014666514344372341912_);" d="M127.567,409.708
				c-0.2-0.072-0.388-0.134-0.566-0.209c-3.421-1.43-8.75-5.189-9.049-8.987c-0.129-1.679-0.961-3.201-2.306-4.17l-0.447-0.316
				c-2.83-2.062-0.634-4.577,2.063-7.029c1.318,4.68,4.63,12.669,11.646,13.551l1.215,4.661
				C130.59,408.75,129.083,410.239,127.567,409.708z"/>
		</g>
		<path style="fill:#E29A9A;" d="M173.333,294.321l9.406-13.039c-0.425-2.743-1.26-5.604-2.385-8.294
			c0.227,0.524-7.718,5.703-8.704,6.577c-4.331,3.837-8.003,8.86-11.879,13.162c-0.726,0.806-1.475,1.654-1.755,2.702
			c-0.297,1.112-0.024,2.286,0.237,3.407c2.843,12.183,8.973,101.34,8.973,101.34c2.757,0.235,6.637-1.707,6.633-3.568
			c-0.053-31.471,2.348-43.738,4.539-64.909l3.018-29.165c1.29-3.794-8.591,1.612-8.085-4.546
			C173.671,293.88,174.397,298.302,173.333,294.321z"/>
		<g>
			<g>
				<g>
					<path style="fill:#E29A9A;" d="M187.247,413.717c-0.201,0.068-0.387,0.136-0.573,0.188c-3.568,1.009-10.079,1.383-12.676-1.404
						c-1.146-1.234-2.744-1.908-4.4-1.829l-0.546,0.031c-3.499,0.147-3.344-3.188-2.759-6.786c0.119-0.77,0.269-1.54,0.403-2.295
						l-0.089-2.562c0,0-8.226-51.246-7.274-72.073c8.102,3.865,13.565,20.919,14.862,18.146l-0.437,53.519
						c-0.037,0.361,0.653,1.498,0.685,1.544l9.398,7.081l3.852,2.892C189.018,411.086,188.765,413.189,187.247,413.717z"/>
				</g>
			</g>
			
				<linearGradient id="SVGID_00000131333476708242613140000013805382458422189487_" gradientUnits="userSpaceOnUse" x1="165.9689" y1="409.2856" x2="188.5522" y2="409.2856">
				<stop  offset="0" style="stop-color:#55007E"/>
				<stop  offset="1" style="stop-color:#214A81"/>
			</linearGradient>
			<path style="fill:url(#SVGID_00000131333476708242613140000013805382458422189487_);" d="M187.247,413.717
				c-0.201,0.068-0.387,0.136-0.573,0.188c-3.568,1.009-10.079,1.383-12.676-1.404c-1.146-1.234-2.744-1.908-4.4-1.829l-0.546,0.031
				c-3.499,0.147-3.344-3.188-2.759-6.786c3.944,2.843,11.508,7.036,17.549,3.36l3.852,2.892
				C189.018,411.086,188.765,413.189,187.247,413.717z"/>
		</g>
		
			<linearGradient id="SVGID_00000150065745982162409650000013379402236295480735_" gradientUnits="userSpaceOnUse" x1="59.1367" y1="241.3579" x2="169.0978" y2="241.3579">
			<stop  offset="0" style="stop-color:#55007E"/>
			<stop  offset="1" style="stop-color:#214A81"/>
		</linearGradient>
		<path style="fill:url(#SVGID_00000150065745982162409650000013379402236295480735_);" d="M136.669,179.018
			c-5.567,5.24-8.857,12.481-10.95,19.834c-2.093,7.353-3.12,14.967-4.947,22.39c-0.852,3.46-1.917,6.961-4.058,9.81
			c-5.341,7.109-15.624,8.239-22.517,13.855c-2.941,2.396-5.211,5.609-6.486,9.183c-1.32,3.698-1.634,7.839-3.871,11.066
			c-4.086,5.893-12.665,6.357-18.363,10.711c-6.581,5.029-8.1,15.122-4.268,22.464c3.833,7.342,12.103,11.776,20.375,12.177
			c6.167,0.299,12.416-1.449,17.533-4.906c14.751-9.967,17.861-31.45,32.214-41.983c5.978-4.387,13.951-6.978,17.148-13.668
			c2.375-4.971,1.384-10.945,3.222-16.139c2.51-7.091,9.693-11.373,13.777-17.691c3.429-5.305,4.501-12.075,2.878-18.18
			c-0.698-2.626-1.865-5.12-2.421-7.78c-0.742-3.545-0.378-7.283-1.406-10.756C160.881,167.095,143.114,172.953,136.669,179.018z"/>
		
			<linearGradient id="SVGID_00000119812626862610668360000016938055863174235322_" gradientUnits="userSpaceOnUse" x1="136.7994" y1="190.7071" x2="168.0049" y2="190.7071">
			<stop  offset="0" style="stop-color:#55007E"/>
			<stop  offset="1" style="stop-color:#214A81"/>
		</linearGradient>
		<path style="fill:url(#SVGID_00000119812626862610668360000016938055863174235322_);" d="M157.314,209.162
			c-3.825,0.101-7.879,0.146-11.18-1.788c-2.525-1.48-4.304-3.96-5.71-6.527c-2.292-4.185-3.81-8.903-3.606-13.67
			c0.204-4.767,2.289-9.572,6.113-12.426c5.275-3.937,13.473-3.207,17.968,1.602c1.49,1.593,2.572,3.523,3.479,5.507
			c2.171,4.747,3.41,9.919,3.626,15.135"/>
		<g>
			<path style="fill:#FFA898;" d="M164.352,307.13c0.096-0.455,0.248-0.928,0.485-1.43c1.665-3.534,5.267-4.721,8.822-5.229
				c0.08-0.011,0.171-0.011,0.262-0.011c1.07-0.023,2.117,0.364,3.13,0.615c0.364-3.438,0.74-7.398,1.047-10.699
				c0.011-0.034,0.011-0.057,0.011-0.08c0.023-0.25,0.057-0.478,0.08-0.694v-0.046c0.148-1.639,0.228-2.743,0.376-4.439
				c0.068-0.922,0.171-1.252,0.182-2.664c0-0.216,0-0.489-0.011-0.808c-0.046-2.322-0.114-9.527-0.171-15.457l-21.729,1.662
				c-0.228,1.207-0.546,2.607-1.104,3.79c-0.99,2.151-2.641,4.052-4.439,5.714c-1.81,1.673-3.073,3.722-4.382,5.725
				c-0.057,0.091-0.125,0.193-0.182,0.295c-2.697,4.849-3.735,9.558-3.753,14.198C149.984,301.061,157.086,304.33,164.352,307.13z"
				/>
			<path style="fill:#BB7F79;" d="M144.538,397.53c-0.088,0.074-0.154,0.127-0.176,0.138
				C144.428,397.625,144.483,397.583,144.538,397.53z"/>
			<path style="fill:#BB7F79;" d="M144.582,397.498c-0.011,0.021-0.022,0.032-0.044,0.032l0.033-0.032H144.582z"/>
			<path style="fill:#223B77;" d="M144.538,397.53c-0.088,0.074-0.154,0.127-0.176,0.138
				C144.428,397.625,144.483,397.583,144.538,397.53z"/>
			<path style="fill:#223B77;" d="M144.582,397.498c-0.011,0.021-0.022,0.032-0.044,0.032l0.033-0.032H144.582z"/>
		</g>
		<path style="fill:#E29A9A;" d="M198.929,253.269c-5.225-4.377-10.853-8.414-15.655-13.622c-5.019-5.444-9.772-11.191-13.9-17.346
			c-2.024-3.017-5.832-4.598-9.278-3.503c-0.683,0.217-1.369,0.538-2.04,0.994c-3.881,2.638-3.395,7.142,0.39,10.085
			c7.309,5.683,13.507,13.513,20.639,19.579c7.121,6.057,14.462,11.199,22.112,16.521c2.522,1.754,5.14,3.502,8.121,4.242
			c0.608,0.151,1.3,0.245,1.819-0.105c1-0.674,0.527-2.224-0.072-3.271C207.92,261.338,203.584,257.169,198.929,253.269z"/>
		
			<linearGradient id="SVGID_00000078029008357548426250000004948790341774443963_" gradientUnits="userSpaceOnUse" x1="142.2477" y1="245.3494" x2="180.9084" y2="245.3494">
			<stop  offset="0.2012" style="stop-color:#FFD584"/>
			<stop  offset="0.9175" style="stop-color:#FCEE21"/>
		</linearGradient>
		<path style="fill:url(#SVGID_00000078029008357548426250000004948790341774443963_);" d="M179.9,240.394
			c0.029-0.999-0.024-2.013-0.197-3.045c-0.665-3.984-2.741-7.624-5.344-10.713c-3.056-3.628-9.375-11.182-14.728-10.298
			c-0.555,0.092-9.419,1.557-9.419,1.557l-3.218,1.371c-4.201,3.06-5.847,8.683-3.992,13.634c2.228,5.947,6.236,10.894,8.311,16.805
			c2.477,7.057,4.095,13.94,3.636,21.491c4.814,0.616,10.046,0.78,14.699,2.069c0.765,0.212,11.565,2.405,11.252,0.168
			c-0.855-6.116-1.907-12.24-2.569-18.379C177.781,249.951,179.751,245.488,179.9,240.394z"/>
		<path style="fill:#FFA898;" d="M153.095,218.78c-0.675-1.077-0.992-2.439-1.008-4.137c-0.005-0.544,0.172-7.264-0.423-7.053
			c2.703-0.962,6.731-3.583,9.473-3.591c0.064,3.98,0.547,7.954,1.437,11.834c0.449,1.959,0.83,4.427-0.792,5.613
			c-0.9,0.658-2.127,0.636-3.222,0.42C155.847,221.332,154.086,220.361,153.095,218.78z"/>
		<path style="fill:#E29A9A;" d="M152.105,213.009c2.86,1.602,6.531,0.994,9.825-0.462c-0.475-2.825-0.747-5.684-0.793-8.548
			c-2.743,0.008-6.77,2.629-9.473,3.591C152.092,207.437,152.12,210.867,152.105,213.009z"/>
		<g>
			<g>
				<path style="fill:#FFA898;" d="M141.156,197.96c-0.661-2.347-0.209-5.492,1.7-5.734c0.57-0.072,1.234,0.121,1.894,0.486
					c1.056-6.784,5.493-14.464,10.266-15.069c6.245-0.791,11.86,2.18,13.756,18.827c0.75,6.587-3.218,13.706-9.317,15.045
					c-4.583,1.006-10.275-3.904-13.122-9.2C144.253,201.794,141.993,200.936,141.156,197.96z"/>
			</g>
		</g>
		<g>
			
				<linearGradient id="SVGID_00000065765503289664778530000009565004490492836539_" gradientUnits="userSpaceOnUse" x1="141.3515" y1="186.0313" x2="172.0093" y2="186.0313">
				<stop  offset="0" style="stop-color:#55007E"/>
				<stop  offset="1" style="stop-color:#214A81"/>
			</linearGradient>
			<path style="fill:url(#SVGID_00000065765503289664778530000009565004490492836539_);" d="M152.629,188.033
				c2.36,0.464,5.405,0.194,5.64-2.804c1.256,1.988,6.056,2.756,6.466-0.294c2.399,2.911,8.11,1.249,7.171-2.941
				c-0.688-3.069-5.698-7.396-8.67-8.129c-7.491-1.849-15.728,3.422-20.23,8.849c-1.174,1.415-1.936,3.617-1.555,5.521
				c0.345,1.72,6.388,16.481,5.294,7.422C146.744,195.656,152.741,191.998,152.629,188.033z"/>
		</g>
		
			<linearGradient id="SVGID_00000088837210002318876230000006498063178973576872_" gradientUnits="userSpaceOnUse" x1="135.4405" y1="303.4456" x2="183.896" y2="303.4456">
			<stop  offset="0" style="stop-color:#19507E"/>
			<stop  offset="0.1718" style="stop-color:#1F6282"/>
			<stop  offset="0.7283" style="stop-color:#2F968D"/>
			<stop  offset="1" style="stop-color:#36AB92"/>
		</linearGradient>
		<path style="fill:url(#SVGID_00000088837210002318876230000006498063178973576872_);" d="M138.3,296.474
			c-2.929,10.192-3.261,20.971-2.526,31.55c7.147,2.257,13.933,5.546,21.067,7.844c7.134,2.298,14.863,3.582,22.117,1.696
			c5.597-20.854,6.453-42.966,2.486-64.191c-4.682,0.572-9.379-1.029-13.904-1.979c-0.593-0.125-12.423-2.339-11.929-2.976
			c-3.584,4.627-8.029,8.194-11.072,13.258C141.782,286.264,139.775,291.34,138.3,296.474z"/>
		<g>
			
				<linearGradient id="SVGID_00000136382445976959925770000010230146291358643076_" gradientUnits="userSpaceOnUse" x1="179.3864" y1="287.7044" x2="223.7554" y2="287.7044">
				<stop  offset="0" style="stop-color:#FC9981"/>
				<stop  offset="0.9954" style="stop-color:#F8007E"/>
			</linearGradient>
			
				<rect x="179.386" y="265.52" style="fill:url(#SVGID_00000136382445976959925770000010230146291358643076_);" width="44.369" height="44.369"/>
			
				<linearGradient id="SVGID_00000183946909375893817340000008279872454667740811_" gradientUnits="userSpaceOnUse" x1="204.0745" y1="300.8132" x2="214.3343" y2="228.9946">
				<stop  offset="0" style="stop-color:#FC9981"/>
				<stop  offset="0.9954" style="stop-color:#F8007E"/>
			</linearGradient>
			<polygon style="fill:url(#SVGID_00000183946909375893817340000008279872454667740811_);" points="223.755,265.52 179.386,265.52 
				196.2,253.461 240.569,253.461 			"/>
			
				<linearGradient id="SVGID_00000031886508164979016780000010934003788112177596_" gradientUnits="userSpaceOnUse" x1="210.6288" y1="320.9731" x2="245.7419" y2="257.5429">
				<stop  offset="0" style="stop-color:#FC9981"/>
				<stop  offset="0.9954" style="stop-color:#F8007E"/>
			</linearGradient>
			<polygon style="fill:url(#SVGID_00000031886508164979016780000010934003788112177596_);" points="223.755,265.52 
				223.755,309.889 241.334,297.246 240.569,253.461 			"/>
		</g>
		<path style="fill:#FFA898;" d="M208.828,273.541c-1.748-3.965-6.153-5.708-9.923-7.153c1.247,0.02,2.435-0.328,3.471-1.02
			c-2.469-2.753-6.145-0.542-9.283-0.596c-4.133-0.071-19.11-8.738-22.891-10.579c-1.722-0.839-3.455-1.684-4.988-2.832
			c-4.675-3.5-7.755-9.662-10.264-14.792c-1.315-2.688-2.735-5.413-4.966-7.407c-2.231-1.994-5.468-3.13-8.281-2.111
			c-2.011,2.493-0.839,6.171,0.486,9.088c4.675,10.291,8.735,21.632,19.641,26.251c10.016,4.242,20.984,5.586,30.348,11.461
			c2.703,1.696,14.924,7.338,16.893,2.619C209.458,275.539,209.234,274.462,208.828,273.541z"/>
		
			<linearGradient id="SVGID_00000124153613340751211870000017732047874400400298_" gradientUnits="userSpaceOnUse" x1="139.8385" y1="234.4892" x2="160.14" y2="234.4892">
			<stop  offset="0.2012" style="stop-color:#FFD584"/>
			<stop  offset="0.9175" style="stop-color:#FCEE21"/>
		</linearGradient>
		<path style="fill:url(#SVGID_00000124153613340751211870000017732047874400400298_);" d="M141.385,224.653
			c-1.689,3.188-2.014,7.07-0.878,10.494c0.432,1.302,1.061,2.529,1.688,3.75c1.906,3.715,3.812,7.43,5.719,11.145
			c4.091-2.126,8.167-4.283,12.227-6.469c-1.779-4.298-2.46-8.961-3.783-13.42c-0.976-3.29-2.885-8.97-6.175-10.734
			C146.695,217.548,143.054,221.505,141.385,224.653z"/>
	</g>
	<g>
		
			<linearGradient id="SVGID_00000042735753136978497390000005417430470259090339_" gradientUnits="userSpaceOnUse" x1="277.5" y1="107.3864" x2="312.0703" y2="107.3864">
			<stop  offset="0.2012" style="stop-color:#FFD584"/>
			<stop  offset="0.9175" style="stop-color:#FCEE21"/>
		</linearGradient>
		
			<rect x="277.5" y="84.285" style="fill:url(#SVGID_00000042735753136978497390000005417430470259090339_);" width="34.57" height="46.202"/>
		
			<linearGradient id="SVGID_00000079449435795253171920000010213413610989145786_" gradientUnits="userSpaceOnUse" x1="270" y1="107.3864" x2="277.5" y2="107.3864">
			<stop  offset="0.2012" style="stop-color:#FFD584"/>
			<stop  offset="0.9175" style="stop-color:#FCEE21"/>
		</linearGradient>
		<polygon style="fill:url(#SVGID_00000079449435795253171920000010213413610989145786_);" points="277.5,84.285 270,124.168 
			277.5,130.487 		"/>
		
			<path style="fill:none;stroke:#1D262D;stroke-width:1.0719;stroke-linecap:round;stroke-linejoin:round;stroke-miterlimit:10;" d="
			M287.562,89.11c-0.167-5.523-0.241-11.449,2.405-16.065c0.998-1.741,2.466-3.274,4.258-3.596c1.916-0.345,3.869,0.792,5.137,2.478
			c1.267,1.687,1.945,3.853,2.404,6.018c0.733,3.457,0.974,7.051,0.712,10.596"/>
	</g>
	<g>
		
			<linearGradient id="SVGID_00000172421789271118523020000011028838314532959124_" gradientUnits="userSpaceOnUse" x1="297.2268" y1="394.0316" x2="338.1181" y2="394.0316" gradientTransform="matrix(0.9966 -0.0825 0.0825 0.9966 -31.3229 27.1068)">
			<stop  offset="0.2012" style="stop-color:#FFD584"/>
			<stop  offset="0.9175" style="stop-color:#FCEE21"/>
		</linearGradient>
		<polygon style="fill:url(#SVGID_00000172421789271118523020000011028838314532959124_);" points="340,414.213 299.456,417.371 
			295.554,372.968 336.098,369.81 		"/>
		
			<linearGradient id="SVGID_00000017494984490531155360000012574594584894267542_" gradientUnits="userSpaceOnUse" x1="288.5987" y1="393.933" x2="297.452" y2="393.933" gradientTransform="matrix(0.9966 -0.0825 0.0825 0.9966 -31.3229 27.1068)">
			<stop  offset="0.2012" style="stop-color:#FFD584"/>
			<stop  offset="0.9175" style="stop-color:#FCEE21"/>
		</linearGradient>
		<polygon style="fill:url(#SVGID_00000017494984490531155360000012574594584894267542_);" points="295.554,372.968 
			290.126,411.983 299.456,417.371 		"/>
		
			<path style="fill:none;stroke:#1D262D;stroke-width:1.1419;stroke-linecap:round;stroke-linejoin:round;stroke-miterlimit:10;" d="
			M307.763,376.686c-0.662-5.293-1.249-10.981,1.463-15.659c1.023-1.764,2.615-3.372,4.69-3.845
			c2.218-0.506,4.605,0.407,6.234,1.913c1.629,1.505,2.607,3.525,3.328,5.564c1.152,3.255,1.738,6.687,1.729,10.118"/>
	</g>
	<g>
		
			<linearGradient id="SVGID_00000090999217912920501920000002079964474993984659_" gradientUnits="userSpaceOnUse" x1="208.3349" y1="379.1458" x2="258.3877" y2="379.1458" gradientTransform="matrix(0.9966 -0.0825 0.0667 0.8066 -25.3074 107.4694)">
			<stop  offset="0" style="stop-color:#CBC755"/>
			<stop  offset="1" style="stop-color:#629725"/>
		</linearGradient>
		<polygon style="fill:url(#SVGID_00000090999217912920501920000002079964474993984659_);" points="259.322,414.117 
			209.646,417.987 205.777,373.955 255.453,370.085 		"/>
		
			<linearGradient id="SVGID_00000090265583121988027700000004356233552548166073_" gradientUnits="userSpaceOnUse" x1="197.7214" y1="378.9967" x2="208.5621" y2="378.9967" gradientTransform="matrix(0.9966 -0.0825 0.0667 0.8066 -25.3074 107.4694)">
			<stop  offset="0" style="stop-color:#CBC755"/>
			<stop  offset="1" style="stop-color:#629725"/>
		</linearGradient>
		<polygon style="fill:url(#SVGID_00000090265583121988027700000004356233552548166073_);" points="205.777,373.955 198.34,412.804 
			209.646,417.987 		"/>
		
			<path style="fill:none;stroke:#1D262D;stroke-width:1.2587;stroke-linecap:round;stroke-linejoin:round;stroke-miterlimit:10;" d="
			M220.64,377.427c-0.702-5.245-1.304-10.884,2.11-15.579c1.288-1.771,3.269-3.396,5.818-3.904c2.725-0.543,5.626,0.321,7.589,1.787
			c1.963,1.466,3.118,3.454,3.959,5.466c1.343,3.213,1.991,6.611,1.91,10.019"/>
	</g>
	<g>
		
			<linearGradient id="SVGID_00000021815356776840293320000018008927010782153863_" gradientUnits="userSpaceOnUse" x1="173.9396" y1="136.0065" x2="202.2789" y2="136.0065" gradientTransform="matrix(-1 0 0 1 372.0703 0)">
			<stop  offset="0" style="stop-color:#FC9981"/>
			<stop  offset="0.9954" style="stop-color:#F8007E"/>
		</linearGradient>
		<polygon style="fill:url(#SVGID_00000021815356776840293320000018008927010782153863_);" points="169.791,152.487 
			198.131,152.487 198.131,119.526 169.791,119.526 		"/>
		
			<linearGradient id="SVGID_00000155106019960839082660000008603524279592176317_" gradientUnits="userSpaceOnUse" x1="167.7914" y1="136.0065" x2="173.9396" y2="136.0065" gradientTransform="matrix(-1 0 0 1 372.0703 0)">
			<stop  offset="0" style="stop-color:#FC9981"/>
			<stop  offset="0.9954" style="stop-color:#F8007E"/>
		</linearGradient>
		<polygon style="fill:url(#SVGID_00000155106019960839082660000008603524279592176317_);" points="198.131,119.526 
			204.279,147.979 198.131,152.487 		"/>
		
			<path style="fill:none;stroke:#1D262D;stroke-width:0.8198;stroke-linecap:round;stroke-linejoin:round;stroke-miterlimit:10;" d="
			M189.882,122.968c0.137-3.94,0.197-8.168-1.971-11.461c-0.818-1.242-2.021-2.336-3.49-2.566c-1.571-0.246-3.172,0.565-4.211,1.768
			c-1.039,1.203-1.595,2.749-1.971,4.293c-0.601,2.466-0.799,5.03-0.583,7.559"/>
	</g>
	<g>
		<g>
			
				<linearGradient id="SVGID_00000135663445138190857970000007768773706379148431_" gradientUnits="userSpaceOnUse" x1="4.9006" y1="115.8744" x2="33.24" y2="115.8744" gradientTransform="matrix(-1 0 0 1 372.0703 0)">
				<stop  offset="0" style="stop-color:#CBC755"/>
				<stop  offset="1" style="stop-color:#629725"/>
			</linearGradient>
			<polygon style="fill:url(#SVGID_00000135663445138190857970000007768773706379148431_);" points="338.83,131.987 367.17,131.987 
				367.17,99.761 338.83,99.761 			"/>
			
				<linearGradient id="SVGID_00000049922451066576573160000016958146618396477066_" gradientUnits="userSpaceOnUse" x1="-1.2476" y1="115.8744" x2="4.9006" y2="115.8744" gradientTransform="matrix(-1 0 0 1 372.0703 0)">
				<stop  offset="0" style="stop-color:#CBC755"/>
				<stop  offset="1" style="stop-color:#629725"/>
			</linearGradient>
			<polygon style="fill:url(#SVGID_00000049922451066576573160000016958146618396477066_);" points="367.17,99.761 373.318,127.579 
				367.17,131.987 			"/>
			
				<path style="fill:none;stroke:#1D262D;stroke-width:0.8106;stroke-linecap:round;stroke-linejoin:round;stroke-miterlimit:10;" d="
				M358.921,103.127c0.137-3.852,0.197-7.986-1.971-11.205c-0.818-1.214-2.021-2.284-3.491-2.508
				c-1.571-0.24-3.172,0.552-4.211,1.729c-1.039,1.176-1.595,2.687-1.971,4.198c-0.601,2.411-0.799,4.918-0.583,7.391"/>
		</g>
		<g>
			
				<polyline style="fill:none;stroke:#1D262D;stroke-width:2;stroke-linecap:round;stroke-linejoin:round;stroke-miterlimit:10;" points="
				393.25,92.987 383.254,92.987 375.754,130.487 332.254,130.487 325.254,104.487 379.755,104.487 			"/>
			
				<polyline style="fill:none;stroke:#1D262D;stroke-width:2;stroke-linecap:round;stroke-linejoin:round;stroke-miterlimit:10;" points="
				371.254,104.487 368.254,130.487 368.254,136.987 336.754,136.987 339.754,142.487 369.504,142.487 			"/>
			
				<line style="fill:none;stroke:#1D262D;stroke-width:2;stroke-linecap:round;stroke-linejoin:round;stroke-miterlimit:10;" x1="359.754" y1="104.987" x2="358.754" y2="129.487"/>
			
				<line style="fill:none;stroke:#1D262D;stroke-width:2;stroke-linecap:round;stroke-linejoin:round;stroke-miterlimit:10;" x1="348.004" y1="104.987" x2="349.254" y2="130.487"/>
			
				<line style="fill:none;stroke:#1D262D;stroke-width:2;stroke-linecap:round;stroke-linejoin:round;stroke-miterlimit:10;" x1="335.754" y1="104.487" x2="340.254" y2="129.737"/>
			
				<line style="fill:none;stroke:#1D262D;stroke-width:2;stroke-linecap:round;stroke-linejoin:round;stroke-miterlimit:10;" x1="378.252" y1="113.487" x2="328.504" y2="113.487"/>
			
				<line style="fill:none;stroke:#1D262D;stroke-width:2;stroke-linecap:round;stroke-linejoin:round;stroke-miterlimit:10;" x1="377.003" y1="123.987" x2="331.255" y2="123.987"/>
			<circle style="fill:#1D262D;" cx="364.501" cy="145.237" r="3.75"/>
			<circle style="fill:#1D262D;" cx="341.004" cy="145.237" r="3.75"/>
		</g>
	</g>
	<g>
		
			<linearGradient id="SVGID_00000067195016905536774200000006626593257872499085_" gradientUnits="userSpaceOnUse" x1="86.1853" y1="398.3328" x2="119.6237" y2="398.3328" gradientTransform="matrix(-0.9992 -0.0401 -0.0401 0.9992 388.2686 4.1397)">
			<stop  offset="0" style="stop-color:#FC9981"/>
			<stop  offset="0.9954" style="stop-color:#F8007E"/>
		</linearGradient>
		<polygon style="fill:url(#SVGID_00000067195016905536774200000006626593257872499085_);" points="252.033,415.645 
			285.357,416.905 286.913,380.41 253.59,379.15 		"/>
		
			<linearGradient id="SVGID_00000001646600852764412450000016186176169853089704_" gradientUnits="userSpaceOnUse" x1="79.03" y1="398.2942" x2="86.2771" y2="398.2942" gradientTransform="matrix(-0.9992 -0.0401 -0.0401 0.9992 388.2686 4.1397)">
			<stop  offset="0" style="stop-color:#FC9981"/>
			<stop  offset="0.9954" style="stop-color:#F8007E"/>
		</linearGradient>
		<polygon style="fill:url(#SVGID_00000001646600852764412450000016186176169853089704_);" points="286.913,380.41 292.799,412.186 
			285.357,416.905 		"/>
		
			<path style="fill:none;stroke:#1D262D;stroke-width:0.9361;stroke-linecap:round;stroke-linejoin:round;stroke-miterlimit:10;" d="
			M277.051,383.854c0.347-4.357,0.617-9.035-1.777-12.777c-0.903-1.412-2.266-2.676-3.983-2.996
			c-1.835-0.342-3.756,0.484-5.035,1.77c-1.279,1.286-2.005,2.973-2.521,4.666c-0.823,2.704-1.177,5.534-1.043,8.344"/>
	</g>
	<g>
		<g>
			<g>
				
					<linearGradient id="SVGID_00000165215348079653691430000006523633652537870481_" gradientUnits="userSpaceOnUse" x1="333.6299" y1="402.8462" x2="363.128" y2="402.8462">
					<stop  offset="0" style="stop-color:#FC9981"/>
					<stop  offset="0.9954" style="stop-color:#F8007E"/>
				</linearGradient>
				<path style="fill:url(#SVGID_00000165215348079653691430000006523633652537870481_);" d="M362.268,407.793
					c-2.73,7.666-11.175,11.689-18.841,8.959c-7.681-2.735-11.669-11.185-8.938-18.851c2.735-7.68,11.16-11.692,18.841-8.957
					C360.996,391.674,365.003,400.113,362.268,407.793z"/>
				<path style="fill:#FFFFFF;" d="M352.547,391.145c-6.458-2.3-13.546,1.054-15.856,7.54c-2.31,6.487,1.058,13.581,7.516,15.88
					c6.47,2.304,13.581-1.058,15.891-7.545C362.407,400.535,359.017,393.449,352.547,391.145z"/>
			</g>
			<g>
				
					<linearGradient id="SVGID_00000124856157325136688540000014608933475783567020_" gradientUnits="userSpaceOnUse" x1="342.6559" y1="402.584" x2="354.4682" y2="402.584">
					<stop  offset="0" style="stop-color:#FC9981"/>
					<stop  offset="0.9954" style="stop-color:#F8007E"/>
				</linearGradient>
				<path style="fill:url(#SVGID_00000124856157325136688540000014608933475783567020_);" d="M350.106,409.305v2.078h-2.639v-1.984
					c-1.872-0.112-3.688-0.618-4.811-1.31l1.423-3.22c1.236,0.73,2.883,1.198,4.324,1.198c1.254,0,1.703-0.262,1.703-0.711
					c0-1.647-7.245-0.318-7.245-5.204c0-2.115,1.535-3.894,4.605-4.324v-2.04h2.639v2.003c1.385,0.131,2.733,0.487,3.8,1.086
					l-1.329,3.201c-1.292-0.655-2.509-0.973-3.65-0.973c-1.292,0-1.704,0.374-1.704,0.824c0,1.572,7.245,0.262,7.245,5.092
					C354.468,407.039,353.008,408.799,350.106,409.305z"/>
			</g>
		</g>
	</g>
	<g>
		<g>
			<g>
				
					<linearGradient id="SVGID_00000086681190586889795670000016967224132914953878_" gradientUnits="userSpaceOnUse" x1="249.5016" y1="147.1464" x2="278.9984" y2="147.1464" gradientTransform="matrix(0.9703 -0.2421 0.2421 0.9703 -32.147 68.045)">
					<stop  offset="0.2012" style="stop-color:#FFD584"/>
					<stop  offset="0.9175" style="stop-color:#FCEE21"/>
				</linearGradient>
				<path style="fill:url(#SVGID_00000086681190586889795670000016967224132914953878_);" d="M274.553,148.284
					c-0.793,8.099-8.013,14.046-16.112,13.253c-8.115-0.795-14.029-8.027-13.236-16.127c0.794-8.114,7.998-14.046,16.113-13.252
					C269.416,132.952,275.347,140.17,274.553,148.284z"/>
				<path style="fill:#FFFFFF;" d="M261.09,134.484c-6.822-0.668-12.888,4.302-13.559,11.154
					c-0.671,6.853,4.314,12.921,11.137,13.589c6.835,0.669,12.921-4.314,13.592-11.168
					C272.93,141.207,267.926,135.153,261.09,134.484z"/>
			</g>
			<g>
				
					<linearGradient id="SVGID_00000077292063318337274780000008752524101915798186_" gradientUnits="userSpaceOnUse" x1="258.5272" y1="146.8842" x2="270.3389" y2="146.8842" gradientTransform="matrix(0.9703 -0.2421 0.2421 0.9703 -32.147 68.045)">
					<stop  offset="0.2012" style="stop-color:#FFD584"/>
					<stop  offset="0.9175" style="stop-color:#FCEE21"/>
				</linearGradient>
				<path style="fill:url(#SVGID_00000077292063318337274780000008752524101915798186_);" d="M263.118,152.694l0.503,2.016
					l-2.561,0.639l-0.48-1.925c-1.844,0.344-3.728,0.293-4.985-0.107l0.601-3.469c1.376,0.409,3.087,0.464,4.486,0.116
					c1.217-0.304,1.589-0.667,1.481-1.103c-0.399-1.598-7.106,1.445-8.289-3.296c-0.512-2.052,0.547-4.149,3.421-5.31l-0.494-1.98
					l2.561-0.639l0.485,1.943c1.376-0.208,2.77-0.189,3.95,0.134l-0.515,3.428c-1.412-0.323-2.67-0.337-3.777-0.061
					c-1.253,0.313-1.562,0.776-1.453,1.212c0.381,1.526,7.093-1.499,8.262,3.187C266.802,149.441,265.811,151.501,263.118,152.694z"
					/>
			</g>
		</g>
	</g>
	<g>
		
			<linearGradient id="SVGID_00000054979725786407540240000006024925501862270902_" gradientUnits="userSpaceOnUse" x1="431.2858" y1="178.3304" x2="442.1253" y2="178.3304">
			<stop  offset="0.2012" style="stop-color:#FFD584"/>
			<stop  offset="0.9175" style="stop-color:#FCEE21"/>
		</linearGradient>
		<path style="fill:url(#SVGID_00000054979725786407540240000006024925501862270902_);" d="M440.94,177.145h-3.048v-3.048
			c0-0.652-0.534-1.186-1.186-1.186c-0.652,0-1.185,0.533-1.185,1.186v3.048h-3.049c-0.652,0-1.185,0.534-1.185,1.186
			c0,0.652,0.533,1.186,1.185,1.186h3.049v3.048c0,0.652,0.534,1.186,1.185,1.186c0.652,0,1.186-0.534,1.186-1.186v-3.048h3.048
			c0.652,0,1.186-0.534,1.186-1.186C442.125,177.678,441.592,177.145,440.94,177.145z"/>
		
			<linearGradient id="SVGID_00000079443961342828710120000000716220238093387403_" gradientUnits="userSpaceOnUse" x1="49.3462" y1="265.173" x2="60.1856" y2="265.173">
			<stop  offset="0.2012" style="stop-color:#FFD584"/>
			<stop  offset="0.9175" style="stop-color:#FCEE21"/>
		</linearGradient>
		<path style="fill:url(#SVGID_00000079443961342828710120000000716220238093387403_);" d="M59,263.987h-3.049v-3.048
			c0-0.652-0.534-1.186-1.186-1.186s-1.186,0.534-1.186,1.186v3.048h-3.049c-0.652,0-1.186,0.534-1.186,1.186
			c0,0.652,0.534,1.186,1.186,1.186h3.049v3.048c0,0.652,0.534,1.186,1.186,1.186s1.186-0.534,1.186-1.186v-3.048H59
			c0.652,0,1.186-0.534,1.186-1.186C60.186,264.521,59.652,263.987,59,263.987z"/>
		
			<linearGradient id="SVGID_00000100368258042602183720000001397202420632881076_" gradientUnits="userSpaceOnUse" x1="103.7658" y1="365.2214" x2="114.6053" y2="365.2214">
			<stop  offset="0.2012" style="stop-color:#FFD584"/>
			<stop  offset="0.9175" style="stop-color:#FCEE21"/>
		</linearGradient>
		<path style="fill:url(#SVGID_00000100368258042602183720000001397202420632881076_);" d="M113.42,364.036h-3.049v-3.048
			c0-0.652-0.533-1.186-1.186-1.186c-0.652,0-1.185,0.534-1.185,1.186v3.048h-3.049c-0.652,0-1.185,0.534-1.185,1.186
			s0.534,1.186,1.185,1.186H108v3.049c0,0.652,0.534,1.186,1.185,1.186c0.652,0,1.186-0.534,1.186-1.186v-3.049h3.049
			c0.652,0,1.186-0.534,1.186-1.186S114.072,364.036,113.42,364.036z"/>
		
			<linearGradient id="SVGID_00000150091412064972565290000003470693088741849012_" gradientUnits="userSpaceOnUse" x1="326.0128" y1="83.5189" x2="336.8523" y2="83.5189">
			<stop  offset="0.2012" style="stop-color:#FFD584"/>
			<stop  offset="0.9175" style="stop-color:#FCEE21"/>
		</linearGradient>
		<path style="fill:url(#SVGID_00000150091412064972565290000003470693088741849012_);" d="M335.667,82.333h-3.049v-3.048
			c0-0.652-0.534-1.186-1.186-1.186c-0.652,0-1.186,0.534-1.186,1.186v3.048h-3.049c-0.652,0-1.186,0.534-1.186,1.186
			c0,0.652,0.534,1.186,1.186,1.186h3.049v3.049c0,0.652,0.533,1.186,1.186,1.186c0.652,0,1.186-0.534,1.186-1.186v-3.049h3.049
			c0.652,0,1.186-0.534,1.186-1.186C336.852,82.867,336.319,82.333,335.667,82.333z"/>
		
			<linearGradient id="SVGID_00000028306325560886562210000017988326553693028747_" gradientUnits="userSpaceOnUse" x1="183.7658" y1="84.173" x2="194.6053" y2="84.173">
			<stop  offset="0.2012" style="stop-color:#FFD584"/>
			<stop  offset="0.9175" style="stop-color:#FCEE21"/>
		</linearGradient>
		<path style="fill:url(#SVGID_00000028306325560886562210000017988326553693028747_);" d="M193.42,82.987h-3.049v-3.048
			c0-0.652-0.533-1.186-1.186-1.186c-0.652,0-1.186,0.533-1.186,1.186v3.048h-3.049c-0.652,0-1.186,0.534-1.186,1.186
			c0,0.652,0.534,1.186,1.186,1.186H188v3.049c0,0.652,0.533,1.186,1.186,1.186c0.652,0,1.186-0.534,1.186-1.186v-3.049h3.049
			c0.652,0,1.186-0.533,1.186-1.186C194.605,83.521,194.072,82.987,193.42,82.987z"/>
	</g>
</g>
<g id="DESIGNED_BY_FREEPIK">
	<g>
		<g id="XMLID_319_">
			<g id="XMLID_338_">
				<path id="XMLID_346_" style="fill:#1D262D;" d="M260.104,465.465c-0.432,0.443-0.803,0.931-1.108,1.453l-0.465-0.241
					c-0.067-0.298-0.349-0.503-0.659-0.466c-0.331,0.039-0.568,0.339-0.529,0.67c0.039,0.331,0.339,0.568,0.67,0.529
					c0.066-0.008,0.127-0.026,0.184-0.052l0.451,0.234c-0.251,0.554-0.433,1.139-0.539,1.744l0.747,0.132
					c0.23-1.306,0.85-2.507,1.792-3.473L260.104,465.465z"/>
				<path id="XMLID_345_" style="fill:#1D262D;" d="M265.592,463.163c-0.171,0-0.341,0.006-0.51,0.017l-0.074-0.626
					c0.188-0.149,0.296-0.389,0.266-0.645c-0.046-0.393-0.402-0.674-0.795-0.628c-0.393,0.046-0.674,0.402-0.628,0.795
					c0.03,0.254,0.189,0.461,0.404,0.564l0.074,0.624c-0.714,0.116-1.403,0.332-2.06,0.646l0.327,0.684
					c0.934-0.447,1.942-0.673,2.995-0.673c0.496,0,0.993,0.053,1.475,0.158l0.161-0.741
					C266.692,463.222,266.142,463.163,265.592,463.163z"/>
				<path id="XMLID_344_" style="fill:#1D262D;" d="M272.194,465.711c0.331-0.04,0.566-0.341,0.526-0.672
					c-0.04-0.331-0.341-0.566-0.672-0.526c-0.309,0.038-0.535,0.304-0.53,0.609l-0.416,0.363c-0.418-0.43-0.889-0.813-1.408-1.139
					l-0.404,0.641c1.134,0.715,2.021,1.726,2.563,2.925l0.69-0.313c-0.251-0.554-0.567-1.072-0.942-1.545l0.402-0.351
					C272.065,465.716,272.129,465.719,272.194,465.711z"/>
				<path id="XMLID_343_" style="fill:#1D262D;" d="M265.044,473.372c-0.386,0.023-0.775,0.035-1.157,0.035
					c-0.88,0-1.733-0.061-2.478-0.179c-0.39-0.062-0.846-0.155-1.27-0.292c1.046,1.861,3.069,3.125,5.388,3.125
					c2.855,0,5.262-1.916,5.95-4.504c-0.682,0.449-1.505,0.825-2.459,1.123C267.839,473.047,266.463,473.286,265.044,473.372z"/>
				<path id="XMLID_339_" style="fill:#1D262D;" d="M265.592,464.68c-3.352,0-6.08,2.666-6.08,5.943
					c0,0.426,0.046,0.849,0.137,1.261c0.673,0.483,2.706,0.89,5.348,0.731c2.879-0.173,5.297-0.957,6.672-2.159
					c-0.006-0.195-0.021-0.39-0.045-0.582C271.244,466.913,268.65,464.68,265.592,464.68z M263.432,471.194
					c-1.02,0-1.85-0.83-1.85-1.85c0-1.02,0.83-1.85,1.85-1.85c1.02,0,1.85,0.83,1.85,1.85
					C265.282,470.365,264.452,471.194,263.432,471.194z M268.17,470.286c-0.75,0-1.36-0.61-1.36-1.36s0.61-1.361,1.36-1.361
					c0.75,0,1.361,0.61,1.361,1.361S268.92,470.286,268.17,470.286z"/>
			</g>
			<path id="XMLID_336_" style="fill:#1D262D;" d="M281.595,466.547c-0.295-0.116-0.805-0.309-1.382-0.237
				c-0.551,0.069-0.844,0.341-0.844,1.007v0.866h2.228v1.717h-2.228v5.455h-1.932v-5.455h-1.34v-1.717h1.34v-0.888
				c0-1.68,0.896-2.783,2.568-2.783c0.643,0,1.157,0.122,1.59,0.308L281.595,466.547z"/>
			<path id="XMLID_334_" style="fill:#1D262D;" d="M286.298,469.879c-0.177-0.03-0.358-0.046-0.526-0.046
				c-0.896,0-1.51,0.548-1.51,1.614v3.908h-1.932v-7.172h1.873v0.785c0.451-0.673,1.14-0.977,2.021-0.977
				c0.414,0,0.848,0.128,1.094,0.337L286.298,469.879z"/>
			<path id="XMLID_331_" style="fill:#1D262D;" d="M293.965,471.757c0,0.222-0.015,0.489-0.037,0.651h-5.085
				c0.207,1.036,0.933,1.488,1.843,1.488c0.622,0,1.295-0.252,1.813-0.688l1.133,1.243c-0.814,0.748-1.85,1.088-3.057,1.088
				c-2.198,0-3.723-1.495-3.723-3.753c0-2.258,1.48-3.797,3.627-3.797C292.544,467.99,293.958,469.522,293.965,471.757z
				 M288.851,471.091h3.175c-0.177-0.918-0.733-1.436-1.562-1.436C289.554,469.655,289.021,470.203,288.851,471.091z"/>
			<path id="XMLID_328_" style="fill:#1D262D;" d="M301.618,471.757c0,0.222-0.015,0.489-0.037,0.651h-5.085
				c0.207,1.036,0.933,1.488,1.843,1.488c0.622,0,1.295-0.252,1.814-0.688l1.132,1.243c-0.814,0.748-1.85,1.088-3.057,1.088
				c-2.198,0-3.723-1.495-3.723-3.753c0-2.258,1.48-3.797,3.627-3.797C300.197,467.99,301.611,469.522,301.618,471.757z
				 M296.504,471.091h3.175c-0.178-0.918-0.733-1.436-1.562-1.436C297.207,469.655,296.674,470.203,296.504,471.091z"/>
			<path id="XMLID_325_" style="fill:#1D262D;" d="M309.964,471.764c0,2.154-1.495,3.775-3.471,3.775
				c-0.962,0-1.643-0.378-2.109-0.933v3.708h-1.924v-10.133h1.887v0.792c0.466-0.585,1.155-0.984,2.139-0.984
				C308.469,467.99,309.964,469.61,309.964,471.764z M304.287,471.764c0,1.132,0.748,1.976,1.843,1.976
				c1.14,0,1.85-0.881,1.85-1.976c0-1.095-0.71-1.976-1.85-1.976C305.035,469.788,304.287,470.632,304.287,471.764z"/>
			<path id="XMLID_322_" style="fill:#1D262D;" d="M313.068,465.836c0,0.696-0.54,1.229-1.236,1.229
				c-0.696,0-1.229-0.533-1.229-1.229c0-0.696,0.533-1.243,1.229-1.243C312.527,464.592,313.068,465.14,313.068,465.836z
				 M312.809,475.354h-1.932v-7.172h1.932V475.354z"/>
			<path id="XMLID_320_" style="fill:#1D262D;" d="M316.032,470.736l2.701-2.554h2.368l-3.479,3.375l3.501,3.797h-2.376
				l-2.716-2.901v2.901H314.1v-10.658h1.932V470.736z"/>
		</g>
		<g>
			<path style="fill:#1D262D;" d="M184.412,475.289v-1.055c-0.527,0.718-1.391,1.23-2.387,1.23c-1.846,0-3.149-1.406-3.149-3.706
				c0-2.256,1.289-3.721,3.149-3.721c0.952,0,1.816,0.469,2.387,1.245v-3.765h1.099v9.77H184.412z M184.412,473.37v-3.208
				c-0.395-0.615-1.245-1.143-2.124-1.143c-1.421,0-2.27,1.172-2.27,2.739c0,1.567,0.85,2.724,2.27,2.724
				C183.168,474.483,184.017,473.986,184.412,473.37z"/>
			<path style="fill:#1D262D;" d="M186.932,471.744c0-2.051,1.465-3.706,3.486-3.706c2.139,0,3.398,1.67,3.398,3.794v0.279h-5.727
				c0.088,1.333,1.025,2.446,2.549,2.446c0.805,0,1.626-0.322,2.182-0.894l0.527,0.718c-0.703,0.703-1.655,1.084-2.812,1.084
				C188.44,475.465,186.932,473.956,186.932,471.744z M190.403,468.947c-1.509,0-2.256,1.274-2.314,2.358h4.643
				C192.718,470.25,192.015,468.947,190.403,468.947z"/>
			<path style="fill:#1D262D;" d="M194.607,474.351l0.571-0.791c0.469,0.542,1.362,1.011,2.329,1.011c1.084,0,1.67-0.513,1.67-1.216
				c0-1.714-4.38-0.659-4.38-3.281c0-1.098,0.952-2.036,2.636-2.036c1.201,0,2.051,0.454,2.622,1.026l-0.513,0.762
				c-0.424-0.513-1.201-0.894-2.109-0.894c-0.967,0-1.567,0.483-1.567,1.113c0,1.552,4.38,0.527,4.38,3.281
				c0,1.187-0.952,2.138-2.783,2.138C196.306,475.465,195.325,475.113,194.607,474.351z"/>
			<path style="fill:#1D262D;" d="M201.477,466.471c0-0.41,0.337-0.747,0.732-0.747c0.41,0,0.747,0.337,0.747,0.747
				c0,0.41-0.337,0.732-0.747,0.732C201.814,467.203,201.477,466.881,201.477,466.471z M201.667,475.289v-7.075h1.099v7.075H201.667
				z"/>
			<path style="fill:#1D262D;" d="M204.582,477.105l0.556-0.82c0.586,0.703,1.289,0.967,2.3,0.967c1.172,0,2.27-0.571,2.27-2.124
				v-1.011c-0.513,0.718-1.377,1.26-2.373,1.26c-1.845,0-3.149-1.377-3.149-3.662c0-2.27,1.289-3.677,3.149-3.677
				c0.952,0,1.802,0.469,2.373,1.245v-1.069h1.098v6.87c0,2.344-1.641,3.076-3.369,3.076
				C206.237,478.16,205.417,477.926,204.582,477.105z M209.709,473.253v-3.091c-0.381-0.615-1.23-1.143-2.109-1.143
				c-1.421,0-2.27,1.128-2.27,2.695c0,1.553,0.849,2.695,2.27,2.695C208.478,474.41,209.328,473.868,209.709,473.253z"/>
			<path style="fill:#1D262D;" d="M217.413,475.289v-4.629c0-1.245-0.63-1.641-1.582-1.641c-0.865,0-1.685,0.527-2.095,1.099v5.17
				h-1.099v-7.075h1.099v1.025c0.498-0.586,1.464-1.201,2.519-1.201c1.48,0,2.256,0.747,2.256,2.285v4.966H217.413z"/>
			<path style="fill:#1D262D;" d="M219.932,471.744c0-2.051,1.465-3.706,3.486-3.706c2.139,0,3.398,1.67,3.398,3.794v0.279h-5.727
				c0.088,1.333,1.025,2.446,2.549,2.446c0.806,0,1.626-0.322,2.183-0.894l0.527,0.718c-0.703,0.703-1.655,1.084-2.812,1.084
				C221.441,475.465,219.932,473.956,219.932,471.744z M223.404,468.947c-1.509,0-2.256,1.274-2.314,2.358h4.643
				C225.718,470.25,225.015,468.947,223.404,468.947z"/>
			<path style="fill:#1D262D;" d="M233.35,475.289v-1.055c-0.527,0.718-1.392,1.23-2.388,1.23c-1.846,0-3.149-1.406-3.149-3.706
				c0-2.256,1.289-3.721,3.149-3.721c0.952,0,1.817,0.469,2.388,1.245v-3.765h1.098v9.77H233.35z M233.35,473.37v-3.208
				c-0.396-0.615-1.245-1.143-2.124-1.143c-1.421,0-2.27,1.172-2.27,2.739c0,1.567,0.849,2.724,2.27,2.724
				C232.105,474.483,232.954,473.986,233.35,473.37z"/>
			<path style="fill:#1D262D;" d="M239.692,475.289v-9.77h1.098v3.765c0.572-0.776,1.421-1.245,2.388-1.245
				c1.845,0,3.149,1.465,3.149,3.721c0,2.299-1.304,3.706-3.149,3.706c-0.996,0-1.86-0.513-2.388-1.23v1.055H239.692z
				 M242.9,474.483c1.436,0,2.285-1.157,2.285-2.724c0-1.568-0.85-2.739-2.285-2.739c-0.864,0-1.728,0.527-2.109,1.143v3.208
				C241.171,473.986,242.036,474.483,242.9,474.483z"/>
			<path style="fill:#1D262D;" d="M247.528,477.061c0.161,0.073,0.425,0.117,0.601,0.117c0.483,0,0.805-0.161,1.055-0.747
				l0.469-1.069l-2.959-7.148h1.187l2.358,5.8l2.344-5.8h1.201l-3.545,8.51c-0.425,1.025-1.143,1.421-2.08,1.435
				c-0.234,0-0.601-0.044-0.805-0.103L247.528,477.061z"/>
		</g>
	</g>
</g>
</svg>
